<?xml version="1.0" encoding="UTF-8" standalone="no"?>
<!DOCTYPE svg PUBLIC "-//W3C//DTD SVG 1.1//EN" "http://www.w3.org/Graphics/SVG/1.1/DTD/svg11.dtd">
<svg xmlns="http://www.w3.org/2000/svg" version="1.1" viewBox="0.00 0.00 1894.00 1107.00">
<g stroke-width="2.00" fill="none" stroke-linecap="butt">
<path stroke="#91add3" vector-effect="non-scaling-stroke" d="
  M 423.24 696.57
  C 423.34 705.04 422.72 715.05 423.88 722.28
  Q 427.03 742.04 443.58 753.82
  C 446.28 755.74 450.37 757.76 453.70 759.86
  Q 454.19 760.16 453.87 760.65
  Q 423.88 806.57 429.41 861.75
  Q 431.67 884.31 442.51 904.20
  Q 442.75 904.64 442.49 905.07
  C 436.85 914.35 435.21 922.37 435.19 934.04
  Q 435.16 961.27 435.13 988.51
  Q 435.12 1002.76 436.33 1008.43
  C 439.75 1024.40 451.14 1037.08 466.39 1042.74
  Q 474.66 1045.81 482.74 1045.35
  Q 535.79 1042.31 594.76 1028.91
  Q 634.55 1019.87 675.74 1006.31
  Q 716.83 992.78 750.68 967.08
  Q 751.10 966.77 751.55 967.03
  Q 763.78 974.20 777.32 973.90
  Q 783.37 973.77 796.91 970.13
  Q 854.36 954.72 911.83 939.32
  Q 923.81 936.11 929.04 933.21
  Q 942.81 925.57 949.39 910.64
  C 951.20 906.52 952.35 901.42 953.55 896.74
  A 0.98 0.96 -0.7 0 1 954.24 896.05
  L 967.49 892.51
  Q 967.99 892.38 968.32 892.78
  Q 986.61 915.40 1013.74 911.59
  Q 1017.51 911.06 1033.15 906.85
  Q 1090.31 891.46 1147.50 876.19
  C 1164.61 871.62 1174.93 858.67 1180.74 842.08
  Q 1180.94 841.53 1181.50 841.68
  C 1187.39 843.27 1193.65 845.07 1199.24 846.08
  C 1229.72 851.60 1261.15 848.17 1291.46 841.62
  C 1342.40 830.60 1391.75 816.00 1440.50 795.15
  Q 1452.91 789.84 1458.17 785.94
  Q 1477.13 771.86 1477.06 745.74
  Q 1476.96 707.19 1476.96 668.61
  C 1476.96 656.00 1475.76 647.77 1469.90 637.73
  A 0.78 0.77 -40.9 0 1 1469.97 636.85
  Q 1476.84 628.41 1479.50 618.24
  Q 1481.00 612.47 1481.06 599.65
  Q 1481.24 558.88 1481.38 518.10
  Q 1481.43 504.18 1479.99 498.22
  Q 1476.38 483.33 1464.26 473.21
  C 1460.61 470.17 1455.64 467.44 1451.17 464.77
  Q 1450.77 464.53 1451.04 464.14
  L 1465.52 443.07
  A 0.48 0.47 35.6 0 1 1466.20 442.96
  C 1518.47 481.11 1588.56 470.66 1646.42 455.69
  C 1699.37 442.00 1750.76 420.00 1791.91 383.04
  C 1841.40 338.59 1860.58 267.97 1851.78 203.49
  C 1841.82 130.48 1790.35 89.51 1717.99 89.23
  C 1671.59 89.06 1622.52 101.05 1580.57 116.58
  C 1537.89 132.38 1498.36 155.54 1466.91 188.80
  Q 1466.53 189.20 1466.13 188.83
  C 1455.50 178.81 1445.78 171.60 1430.49 170.97
  Q 1426.63 170.81 1410.55 172.39
  Q 1325.03 180.77 1243.57 208.32
  Q 1201.76 222.45 1164.92 246.61
  Q 1162.46 248.22 1159.67 248.88
  Q 941.56 300.08 723.48 351.42
  Q 713.75 353.71 704.08 356.31
  Q 583.94 388.65 463.74 420.78
  Q 452.48 423.79 447.46 426.61
  C 434.94 433.66 427.85 444.65 423.76 458.35
  A 0.60 0.59 18.9 0 1 422.97 458.73
  C 393.78 447.29 362.16 448.00 331.25 456.29
  Q 217.45 486.79 103.66 517.27
  Q 91.76 520.45 86.30 523.39
  Q 67.69 533.40 62.97 554.10
  Q 61.55 560.36 61.56 573.99
  Q 61.64 692.50 61.57 811.00
  C 61.55 840.29 86.23 862.77 115.54 858.58
  Q 117.91 858.24 134.91 853.69
  Q 187.94 839.50 240.98 825.31
  Q 252.90 822.11 258.30 819.19
  Q 276.14 809.52 281.41 789.39
  C 283.83 780.13 282.93 768.13 282.84 758.02
  Q 282.84 757.54 283.30 757.43
  C 321.04 748.10 357.76 737.51 391.61 717.90
  C 402.00 711.89 412.55 703.83 422.65 696.28
  Q 423.23 695.84 423.24 696.57"
/>
<path stroke="#91add3" vector-effect="non-scaling-stroke" d="
  M 1750.64 360.13
  C 1787.49 331.26 1806.14 287.56 1806.77 241.51
  C 1807.32 201.98 1797.81 161.31 1756.22 146.16
  C 1731.31 137.10 1701.17 138.61 1675.25 143.31
  C 1617.93 153.71 1559.60 172.66 1515.38 210.88
  C 1473.96 246.68 1458.75 302.12 1467.35 355.45
  C 1471.42 380.69 1483.69 406.47 1507.98 417.04
  C 1535.85 429.16 1571.59 427.14 1601.74 421.20
  C 1655.22 410.67 1707.83 393.68 1750.64 360.13"
/>
<path stroke="#91add3" vector-effect="non-scaling-stroke" d="
  M 1303.73 414.34
  C 1305.49 414.64 1307.03 415.80 1307.32 417.50
  C 1308.80 426.22 1301.14 432.58 1293.77 434.60
  C 1247.23 447.35 1200.46 455.06 1152.57 460.68
  Q 1152.07 460.74 1152.07 461.24
  L 1152.08 528.23
  Q 1152.08 528.58 1152.43 528.55
  C 1208.54 524.20 1261.16 513.62 1317.48 496.50
  Q 1340.54 489.49 1360.40 479.91
  C 1397.55 461.99 1431.65 428.41 1437.44 385.50
  C 1440.76 360.95 1431.59 332.00 1404.62 325.31
  Q 1397.65 323.59 1384.74 324.22
  Q 1363.88 325.24 1343.50 330.30
  Q 1316.72 336.94 1290.05 344.00
  C 1287.78 344.60 1283.34 345.01 1281.67 344.28
  Q 1275.67 341.64 1277.29 335.20
  C 1279.43 326.64 1290.42 322.88 1298.01 320.75
  Q 1361.92 302.74 1427.94 294.34
  Q 1428.49 294.27 1428.49 293.72
  L 1428.49 221.98
  A 0.44 0.43 -1.9 0 0 1428.02 221.55
  Q 1344.02 228.41 1264.05 254.66
  Q 1228.94 266.18 1201.82 282.28
  C 1171.59 300.23 1151.10 325.62 1146.31 361.49
  C 1142.45 390.42 1148.91 423.49 1180.90 431.46
  C 1196.93 435.46 1215.58 432.62 1232.56 429.31
  Q 1269.67 422.07 1294.95 414.61
  Q 1298.71 413.50 1303.73 414.34"
/>
<path stroke="#91add3" vector-effect="non-scaling-stroke" d="
  M 918.12 521.09
  L 978.09 582.19
  Q 978.48 582.59 979.02 582.45
  L 1125.43 543.21
  Q 1126.17 543.02 1125.61 542.49
  L 1041.37 463.61
  A 0.46 0.45 -33.9 0 1 1041.52 462.85
  Q 1057.04 456.95 1064.92 452.44
  C 1087.56 439.49 1107.52 417.61 1114.93 392.40
  C 1119.53 376.78 1119.95 358.56 1113.19 343.81
  C 1104.03 323.79 1084.05 313.76 1061.99 315.48
  Q 1046.53 316.68 1029.79 321.19
  Q 910.40 353.34 790.89 385.43
  Q 790.43 385.55 790.43 386.04
  L 790.43 632.48
  Q 790.43 632.98 790.92 632.85
  L 917.13 599.03
  Q 917.68 598.89 917.68 598.31
  L 917.69 521.27
  Q 917.69 520.66 918.12 521.09"
/>
<path stroke="#91add3" vector-effect="non-scaling-stroke" d="
  M 597.93 539.48
  A 0.32 0.32 0.0 0 1 597.53 539.17
  L 597.53 516.88
  A 0.32 0.32 0.0 0 1 597.77 516.57
  L 753.84 474.74
  A 0.32 0.32 0.0 0 0 754.08 474.43
  L 754.08 395.67
  A 0.32 0.32 0.0 0 0 753.68 395.36
  L 470.52 471.24
  A 0.32 0.32 0.0 0 0 470.28 471.55
  L 470.28 718.35
  A 0.32 0.32 0.0 0 0 470.68 718.66
  L 753.84 642.78
  A 0.32 0.32 0.0 0 0 754.08 642.47
  L 754.08 578.19
  A 0.32 0.32 0.0 0 0 753.68 577.88
  L 597.93 619.61
  A 0.32 0.32 0.0 0 1 597.53 619.30
  L 597.54 599.23
  A 0.32 0.32 0.0 0 1 597.78 598.92
  L 753.84 557.09
  A 0.32 0.32 0.0 0 0 754.08 556.78
  L 754.08 498.06
  A 0.32 0.32 0.0 0 0 753.68 497.75
  L 597.93 539.48"
/>
<path stroke="#91add3" vector-effect="non-scaling-stroke" d="
  M 236.36 725.08
  Q 271.82 715.63 307.40 705.77
  C 337.32 697.48 365.14 685.60 388.77 666.30
  C 420.88 640.07 439.10 600.64 436.74 559.00
  C 435.38 535.21 425.18 513.00 401.88 504.62
  C 382.07 497.49 359.53 500.99 339.74 506.29
  Q 224.51 537.14 109.13 568.09
  A 0.75 0.73 -7.8 0 0 108.58 568.80
  L 108.59 815.00
  Q 108.59 815.69 109.26 815.52
  L 235.27 781.75
  Q 235.87 781.59 235.87 780.98
  L 235.86 725.73
  Q 235.86 725.21 236.36 725.08"
/>
<path stroke="#fba7b7" vector-effect="non-scaling-stroke" d="
  M 1154.35 638.90
  C 1136.79 675.62 1131.97 721.86 1149.34 759.44
  C 1164.44 792.12 1195.44 807.05 1230.50 806.42
  C 1251.87 806.03 1272.30 802.22 1293.27 797.57
  Q 1363.92 781.92 1430.39 752.95
  Q 1430.87 752.74 1430.87 752.21
  L 1430.87 665.36
  A 0.35 0.35 0.0 0 0 1430.36 665.05
  C 1395.53 682.86 1357.84 696.50 1319.43 704.23
  C 1307.67 706.60 1285.42 710.04 1277.55 697.91
  Q 1275.26 694.39 1274.38 687.98
  C 1270.70 661.31 1288.98 644.88 1311.84 636.05
  Q 1334.93 627.13 1361.01 621.78
  Q 1397.23 614.34 1434.30 610.98
  Q 1434.95 610.92 1434.96 610.27
  L 1435.32 512.76
  Q 1435.32 512.23 1434.79 512.28
  Q 1367.81 519.22 1302.66 535.94
  C 1243.04 551.24 1182.38 580.29 1154.35 638.90"
/>
<path stroke="#fba7b7" vector-effect="non-scaling-stroke" d="
  M 1005.07 848.77
  A 0.34 0.34 0.0 0 1 1005.49 849.00
  L 1014.18 877.88
  A 0.34 0.34 0.0 0 0 1014.60 878.11
  L 1143.76 843.50
  A 0.34 0.34 0.0 0 0 1143.99 843.07
  L 1065.71 615.38
  A 0.34 0.34 0.0 0 0 1065.30 615.16
  L 863.01 669.36
  A 0.34 0.34 0.0 0 0 862.78 669.59
  L 783.37 939.54
  A 0.34 0.34 0.0 0 0 783.79 939.96
  L 914.99 904.81
  A 0.34 0.34 0.0 0 0 915.23 904.57
  L 924.01 870.66
  A 0.34 0.34 0.0 0 1 924.25 870.42
  L 1005.07 848.77"
/>
<path stroke="#fba7b7" vector-effect="non-scaling-stroke" d="
  M 627.07 824.78
  C 623.24 825.77 617.11 825.44 616.48 820.98
  C 615.02 810.69 626.93 805.96 634.74 803.74
  Q 699.99 785.19 767.30 776.69
  Q 767.71 776.64 767.71 776.23
  L 767.71 702.52
  A 0.41 0.40 -2.0 0 0 767.27 702.12
  Q 684.57 708.78 605.58 734.16
  C 576.24 743.59 545.41 756.60 521.50 775.71
  C 493.82 797.84 480.47 830.88 483.22 866.13
  C 485.63 896.98 503.65 916.36 536.55 915.90
  C 554.16 915.65 572.00 911.83 589.20 908.28
  C 603.37 905.36 617.92 901.37 632.20 897.56
  C 635.16 896.77 644.26 894.63 644.72 899.76
  C 645.62 909.74 636.87 913.95 628.69 916.14
  C 582.63 928.49 536.95 936.09 490.02 941.41
  Q 489.49 941.47 489.49 942.00
  L 489.49 1010.51
  Q 489.49 1011.09 490.07 1011.04
  C 548.98 1006.65 603.94 995.05 660.50 977.45
  Q 686.07 969.50 704.71 959.46
  C 740.12 940.40 771.08 908.53 776.69 867.01
  C 780.61 838.06 767.39 806.95 734.50 804.81
  C 714.31 803.49 692.33 808.21 672.54 813.20
  Q 649.79 818.94 627.07 824.78"
/>
<path stroke="#91add3" vector-effect="non-scaling-stroke" d="
  M 1672.83 308.04
  Q 1681.22 284.97 1677.31 258.74
  C 1673.22 231.23 1648.97 229.65 1627.90 238.30
  C 1594.53 252.00 1589.16 287.40 1596.00 318.75
  C 1601.34 343.27 1620.14 348.47 1641.77 339.96
  Q 1664.47 331.04 1672.83 308.04"
/>
<path stroke="#91add3" vector-effect="non-scaling-stroke" d="
  M 959.75 457.33
  C 980.86 451.56 993.92 439.31 991.89 416.48
  C 990.54 401.24 977.89 401.20 965.96 404.43
  Q 942.10 410.88 918.16 417.40
  Q 917.69 417.53 917.69 418.02
  L 917.69 468.01
  Q 917.69 468.60 918.26 468.45
  Q 939.07 462.99 959.75 457.33"
/>
<path stroke="#91add3" vector-effect="non-scaling-stroke" d="
  M 312.68 607.25
  C 312.11 592.18 300.69 588.12 287.75 591.53
  Q 262.10 598.28 236.41 605.26
  Q 235.86 605.41 235.86 605.98
  L 235.86 656.73
  Q 235.86 657.21 236.32 657.09
  Q 257.45 651.60 278.53 645.93
  C 297.47 640.84 313.50 628.77 312.68 607.25"
/>
<path stroke="#fba7b7" vector-effect="non-scaling-stroke" d="
  M 940.47 796.10
  A 0.33 0.33 0.0 0 0 940.87 796.51
  L 989.61 783.46
  A 0.33 0.33 0.0 0 0 989.84 783.03
  L 965.98 716.47
  A 0.33 0.33 0.0 0 0 965.36 716.48
  L 940.47 796.10"
/>
</g>
<path fill="#225ba6" d="
  M 1000.17 0.00
  L 1000.73 0.00
  L 1072.14 52.32
  Q 1072.49 52.58 1072.49 53.02
  L 1072.50 251.75
  Q 1072.50 252.27 1073.01 252.16
  Q 1113.10 242.96 1152.98 233.33
  Q 1155.89 232.63 1158.47 230.97
  Q 1193.89 208.26 1231.35 195.03
  Q 1320.91 163.41 1417.54 155.12
  Q 1430.35 154.02 1437.47 155.07
  Q 1452.47 157.28 1465.26 166.11
  Q 1465.70 166.41 1466.09 166.05
  Q 1500.08 134.79 1539.77 116.03
  Q 1600.55 87.30 1666.98 76.56
  C 1703.01 70.73 1742.83 70.14 1777.64 82.68
  C 1828.84 101.13 1859.24 143.92 1867.44 196.99
  C 1879.64 275.91 1853.73 356.71 1790.05 406.47
  Q 1787.06 408.80 1784.72 411.76
  C 1759.34 443.83 1724.18 468.71 1687.16 485.50
  Q 1628.96 511.90 1564.49 522.73
  Q 1530.77 528.39 1498.38 526.62
  Q 1497.88 526.59 1497.88 527.09
  Q 1497.77 564.17 1497.60 601.24
  C 1497.53 616.14 1495.82 626.38 1489.02 638.36
  Q 1488.76 638.82 1488.96 639.31
  Q 1493.50 650.93 1493.50 658.75
  Q 1493.48 699.00 1493.56 739.25
  Q 1493.59 752.92 1492.50 759.19
  Q 1487.78 786.29 1464.46 801.85
  C 1460.04 804.80 1454.72 807.10 1449.60 809.22
  Q 1449.11 809.42 1448.94 809.92
  Q 1439.47 836.83 1413.37 848.32
  Q 1353.94 874.50 1290.97 890.30
  C 1244.27 902.02 1198.17 912.41 1149.68 902.83
  Q 1149.19 902.73 1148.94 903.16
  Q 1138.75 920.91 1121.04 929.50
  Q 1115.40 932.24 1102.09 935.79
  Q 1046.36 950.69 990.66 965.67
  Q 977.23 969.29 971.13 969.85
  Q 945.74 972.19 924.98 955.81
  Q 924.56 955.48 924.36 955.97
  Q 914.65 980.00 892.49 990.72
  Q 886.72 993.51 873.54 997.04
  Q 811.74 1013.58 749.95 1030.15
  Q 731.59 1035.07 712.00 1027.53
  Q 711.52 1027.34 711.09 1027.64
  C 682.93 1047.68 651.59 1060.72 618.45 1070.20
  Q 604.15 1074.29 604.02 1074.32
  Q 523.97 1097.62 445.00 1103.17
  C 413.37 1105.39 384.83 1083.53 378.52 1052.42
  Q 377.23 1046.05 377.23 1032.50
  Q 377.25 1001.12 377.23 969.75
  Q 377.22 958.85 382.54 946.43
  Q 382.75 945.96 382.53 945.49
  C 362.72 902.08 368.48 848.88 389.96 807.49
  Q 390.21 807.01 389.78 806.67
  Q 371.66 792.20 366.64 769.42
  Q 366.51 768.81 365.98 769.14
  Q 332.91 789.70 295.62 800.98
  A 1.05 1.03 -86.7 0 0 294.96 801.58
  Q 283.48 828.70 255.67 838.45
  Q 255.17 838.63 255.00 839.12
  Q 245.78 865.06 222.28 876.49
  Q 216.42 879.33 203.35 882.83
  Q 150.00 897.09 96.66 911.41
  Q 81.11 915.58 77.26 916.19
  C 42.63 921.59 10.17 898.41 4.60 863.70
  Q 3.69 858.02 3.69 843.75
  Q 3.72 727.47 3.72 611.20
  Q 3.72 599.03 5.01 592.89
  C 9.74 570.49 25.82 552.95 47.45 545.59
  Q 47.92 545.44 48.09 544.97
  Q 57.66 518.01 82.39 506.81
  Q 87.81 504.35 101.40 500.72
  Q 215.70 470.12 329.99 439.48
  Q 340.24 436.74 355.49 434.77
  Q 384.85 430.99 413.50 438.12
  Q 413.99 438.25 414.23 437.80
  Q 427.73 413.28 454.55 406.09
  Q 581.48 372.09 708.40 338.08
  C 718.12 335.47 728.50 333.21 738.57 330.79
  Q 739.00 330.68 739.00 330.24
  L 739.00 142.66
  A 2.01 1.97 64.8 0 1 739.43 141.42
  L 810.55 51.24
  Q 810.89 50.81 811.42 50.66
  L 1000.17 0.00
  Z
  M 1000.43 269.27
  A 0.31 0.31 0.0 0 0 1000.67 268.96
  L 1000.67 72.24
  A 0.31 0.31 0.0 0 0 1000.28 71.94
  L 811.06 122.65
  A 0.31 0.31 0.0 0 0 810.83 122.95
  L 810.83 313.43
  A 0.31 0.31 0.0 0 0 811.21 313.73
  L 1000.43 269.27
  Z
  M 423.24 696.57
  C 423.34 705.04 422.72 715.05 423.88 722.28
  Q 427.03 742.04 443.58 753.82
  C 446.28 755.74 450.37 757.76 453.70 759.86
  Q 454.19 760.16 453.87 760.65
  Q 423.88 806.57 429.41 861.75
  Q 431.67 884.31 442.51 904.20
  Q 442.75 904.64 442.49 905.07
  C 436.85 914.35 435.21 922.37 435.19 934.04
  Q 435.16 961.27 435.13 988.51
  Q 435.12 1002.76 436.33 1008.43
  C 439.75 1024.40 451.14 1037.08 466.39 1042.74
  Q 474.66 1045.81 482.74 1045.35
  Q 535.79 1042.31 594.76 1028.91
  Q 634.55 1019.87 675.74 1006.31
  Q 716.83 992.78 750.68 967.08
  Q 751.10 966.77 751.55 967.03
  Q 763.78 974.20 777.32 973.90
  Q 783.37 973.77 796.91 970.13
  Q 854.36 954.72 911.83 939.32
  Q 923.81 936.11 929.04 933.21
  Q 942.81 925.57 949.39 910.64
  C 951.20 906.52 952.35 901.42 953.55 896.74
  A 0.98 0.96 -0.7 0 1 954.24 896.05
  L 967.49 892.51
  Q 967.99 892.38 968.32 892.78
  Q 986.61 915.40 1013.74 911.59
  Q 1017.51 911.06 1033.15 906.85
  Q 1090.31 891.46 1147.50 876.19
  C 1164.61 871.62 1174.93 858.67 1180.74 842.08
  Q 1180.94 841.53 1181.50 841.68
  C 1187.39 843.27 1193.65 845.07 1199.24 846.08
  C 1229.72 851.60 1261.15 848.17 1291.46 841.62
  C 1342.40 830.60 1391.75 816.00 1440.50 795.15
  Q 1452.91 789.84 1458.17 785.94
  Q 1477.13 771.86 1477.06 745.74
  Q 1476.96 707.19 1476.96 668.61
  C 1476.96 656.00 1475.76 647.77 1469.90 637.73
  A 0.78 0.77 -40.9 0 1 1469.97 636.85
  Q 1476.84 628.41 1479.50 618.24
  Q 1481.00 612.47 1481.06 599.65
  Q 1481.24 558.88 1481.38 518.10
  Q 1481.43 504.18 1479.99 498.22
  Q 1476.38 483.33 1464.26 473.21
  C 1460.61 470.17 1455.64 467.44 1451.17 464.77
  Q 1450.77 464.53 1451.04 464.14
  L 1465.52 443.07
  A 0.48 0.47 35.6 0 1 1466.20 442.96
  C 1518.47 481.11 1588.56 470.66 1646.42 455.69
  C 1699.37 442.00 1750.76 420.00 1791.91 383.04
  C 1841.40 338.59 1860.58 267.97 1851.78 203.49
  C 1841.82 130.48 1790.35 89.51 1717.99 89.23
  C 1671.59 89.06 1622.52 101.05 1580.57 116.58
  C 1537.89 132.38 1498.36 155.54 1466.91 188.80
  Q 1466.53 189.20 1466.13 188.83
  C 1455.50 178.81 1445.78 171.60 1430.49 170.97
  Q 1426.63 170.81 1410.55 172.39
  Q 1325.03 180.77 1243.57 208.32
  Q 1201.76 222.45 1164.92 246.61
  Q 1162.46 248.22 1159.67 248.88
  Q 941.56 300.08 723.48 351.42
  Q 713.75 353.71 704.08 356.31
  Q 583.94 388.65 463.74 420.78
  Q 452.48 423.79 447.46 426.61
  C 434.94 433.66 427.85 444.65 423.76 458.35
  A 0.60 0.59 18.9 0 1 422.97 458.73
  C 393.78 447.29 362.16 448.00 331.25 456.29
  Q 217.45 486.79 103.66 517.27
  Q 91.76 520.45 86.30 523.39
  Q 67.69 533.40 62.97 554.10
  Q 61.55 560.36 61.56 573.99
  Q 61.64 692.50 61.57 811.00
  C 61.55 840.29 86.23 862.77 115.54 858.58
  Q 117.91 858.24 134.91 853.69
  Q 187.94 839.50 240.98 825.31
  Q 252.90 822.11 258.30 819.19
  Q 276.14 809.52 281.41 789.39
  C 283.83 780.13 282.93 768.13 282.84 758.02
  Q 282.84 757.54 283.30 757.43
  C 321.04 748.10 357.76 737.51 391.61 717.90
  C 402.00 711.89 412.55 703.83 422.65 696.28
  Q 423.23 695.84 423.24 696.57
  Z"
/>
<path fill="#225ba6" d="
  M 1894.00 74.11
  L 1894.00 80.00
  C 1890.79 102.83 1866.45 116.91 1845.88 104.39
  C 1826.68 92.69 1824.78 66.19 1842.34 52.02
  C 1852.65 43.70 1866.94 42.95 1878.34 49.61
  Q 1891.48 57.28 1894.00 74.11
  Z
  M 1885.73 76.99
  A 23.61 23.61 0.0 0 0 1862.12 53.38
  A 23.61 23.61 0.0 0 0 1838.51 76.99
  A 23.61 23.61 0.0 0 0 1862.12 100.60
  A 23.61 23.61 0.0 0 0 1885.73 76.99
  Z"
/>
<path fill="#225ba6" d="
  M 1859.97 66.89
  A 2.87 2.87 0.0 0 0 1858.80 69.12
  Q 1858.62 76.38 1858.83 83.74
  Q 1858.90 86.48 1861.49 87.01
  C 1865.77 87.88 1865.87 83.31 1865.69 80.53
  Q 1865.65 79.93 1866.24 79.93
  L 1872.27 79.94
  Q 1872.86 79.94 1872.86 80.52
  L 1872.87 90.72
  A 0.85 0.85 0.0 0 1 1872.38 91.49
  C 1867.19 93.90 1855.46 95.95 1852.17 89.34
  Q 1851.28 87.53 1851.16 82.54
  Q 1850.94 73.06 1851.23 67.73
  C 1851.84 56.79 1865.92 58.85 1872.32 61.61
  Q 1872.87 61.85 1872.87 62.45
  L 1872.90 70.78
  Q 1872.90 71.22 1872.47 71.22
  L 1866.26 71.24
  Q 1865.76 71.24 1865.71 70.75
  C 1865.59 69.52 1865.59 68.17 1864.73 67.24
  Q 1862.63 64.95 1859.97 66.89
  Z"
/>
<path fill="#ffffff" d="
  M 422.65 696.28
  C 412.55 703.83 402.00 711.89 391.61 717.90
  C 357.76 737.51 321.04 748.10 283.30 757.43
  Q 282.84 757.54 282.84 758.02
  C 282.93 768.13 283.83 780.13 281.41 789.39
  Q 276.14 809.52 258.30 819.19
  Q 252.90 822.11 240.98 825.31
  Q 187.94 839.50 134.91 853.69
  Q 117.91 858.24 115.54 858.58
  C 86.23 862.77 61.55 840.29 61.57 811.00
  Q 61.64 692.50 61.56 573.99
  Q 61.55 560.36 62.97 554.10
  Q 67.69 533.40 86.30 523.39
  Q 91.76 520.45 103.66 517.27
  Q 217.45 486.79 331.25 456.29
  C 362.16 448.00 393.78 447.29 422.97 458.73
  A 0.60 0.59 18.9 0 0 423.76 458.35
  C 427.85 444.65 434.94 433.66 447.46 426.61
  Q 452.48 423.79 463.74 420.78
  Q 583.94 388.65 704.08 356.31
  Q 713.75 353.71 723.48 351.42
  Q 941.56 300.08 1159.67 248.88
  Q 1162.46 248.22 1164.92 246.61
  Q 1201.76 222.45 1243.57 208.32
  Q 1325.03 180.77 1410.55 172.39
  Q 1426.63 170.81 1430.49 170.97
  C 1445.78 171.60 1455.50 178.81 1466.13 188.83
  Q 1466.53 189.20 1466.91 188.80
  C 1498.36 155.54 1537.89 132.38 1580.57 116.58
  C 1622.52 101.05 1671.59 89.06 1717.99 89.23
  C 1790.35 89.51 1841.82 130.48 1851.78 203.49
  C 1860.58 267.97 1841.40 338.59 1791.91 383.04
  C 1750.76 420.00 1699.37 442.00 1646.42 455.69
  C 1588.56 470.66 1518.47 481.11 1466.20 442.96
  A 0.48 0.47 35.6 0 0 1465.52 443.07
  L 1451.04 464.14
  Q 1450.77 464.53 1451.17 464.77
  C 1455.64 467.44 1460.61 470.17 1464.26 473.21
  Q 1476.38 483.33 1479.99 498.22
  Q 1481.43 504.18 1481.38 518.10
  Q 1481.24 558.88 1481.06 599.65
  Q 1481.00 612.47 1479.50 618.24
  Q 1476.84 628.41 1469.97 636.85
  A 0.78 0.77 -40.9 0 0 1469.90 637.73
  C 1475.76 647.77 1476.96 656.00 1476.96 668.61
  Q 1476.96 707.19 1477.06 745.74
  Q 1477.13 771.86 1458.17 785.94
  Q 1452.91 789.84 1440.50 795.15
  C 1391.75 816.00 1342.40 830.60 1291.46 841.62
  C 1261.15 848.17 1229.72 851.60 1199.24 846.08
  C 1193.65 845.07 1187.39 843.27 1181.50 841.68
  Q 1180.94 841.53 1180.74 842.08
  C 1174.93 858.67 1164.61 871.62 1147.50 876.19
  Q 1090.31 891.46 1033.15 906.85
  Q 1017.51 911.06 1013.74 911.59
  Q 986.61 915.40 968.32 892.78
  Q 967.99 892.38 967.49 892.51
  L 954.24 896.05
  A 0.98 0.96 -0.7 0 0 953.55 896.74
  C 952.35 901.42 951.20 906.52 949.39 910.64
  Q 942.81 925.57 929.04 933.21
  Q 923.81 936.11 911.83 939.32
  Q 854.36 954.72 796.91 970.13
  Q 783.37 973.77 777.32 973.90
  Q 763.78 974.20 751.55 967.03
  Q 751.10 966.77 750.68 967.08
  Q 716.83 992.78 675.74 1006.31
  Q 634.55 1019.87 594.76 1028.91
  Q 535.79 1042.31 482.74 1045.35
  Q 474.66 1045.81 466.39 1042.74
  C 451.14 1037.08 439.75 1024.40 436.33 1008.43
  Q 435.12 1002.76 435.13 988.51
  Q 435.16 961.27 435.19 934.04
  C 435.21 922.37 436.85 914.35 442.49 905.07
  Q 442.75 904.64 442.51 904.20
  Q 431.67 884.31 429.41 861.75
  Q 423.88 806.57 453.87 760.65
  Q 454.19 760.16 453.70 759.86
  C 450.37 757.76 446.28 755.74 443.58 753.82
  Q 427.03 742.04 423.88 722.28
  C 422.72 715.05 423.34 705.04 423.24 696.57
  Q 423.23 695.84 422.65 696.28
  Z
  M 1750.64 360.13
  C 1787.49 331.26 1806.14 287.56 1806.77 241.51
  C 1807.32 201.98 1797.81 161.31 1756.22 146.16
  C 1731.31 137.10 1701.17 138.61 1675.25 143.31
  C 1617.93 153.71 1559.60 172.66 1515.38 210.88
  C 1473.96 246.68 1458.75 302.12 1467.35 355.45
  C 1471.42 380.69 1483.69 406.47 1507.98 417.04
  C 1535.85 429.16 1571.59 427.14 1601.74 421.20
  C 1655.22 410.67 1707.83 393.68 1750.64 360.13
  Z
  M 1303.73 414.34
  C 1305.49 414.64 1307.03 415.80 1307.32 417.50
  C 1308.80 426.22 1301.14 432.58 1293.77 434.60
  C 1247.23 447.35 1200.46 455.06 1152.57 460.68
  Q 1152.07 460.74 1152.07 461.24
  L 1152.08 528.23
  Q 1152.08 528.58 1152.43 528.55
  C 1208.54 524.20 1261.16 513.62 1317.48 496.50
  Q 1340.54 489.49 1360.40 479.91
  C 1397.55 461.99 1431.65 428.41 1437.44 385.50
  C 1440.76 360.95 1431.59 332.00 1404.62 325.31
  Q 1397.65 323.59 1384.74 324.22
  Q 1363.88 325.24 1343.50 330.30
  Q 1316.72 336.94 1290.05 344.00
  C 1287.78 344.60 1283.34 345.01 1281.67 344.28
  Q 1275.67 341.64 1277.29 335.20
  C 1279.43 326.64 1290.42 322.88 1298.01 320.75
  Q 1361.92 302.74 1427.94 294.34
  Q 1428.49 294.27 1428.49 293.72
  L 1428.49 221.98
  A 0.44 0.43 -1.9 0 0 1428.02 221.55
  Q 1344.02 228.41 1264.05 254.66
  Q 1228.94 266.18 1201.82 282.28
  C 1171.59 300.23 1151.10 325.62 1146.31 361.49
  C 1142.45 390.42 1148.91 423.49 1180.90 431.46
  C 1196.93 435.46 1215.58 432.62 1232.56 429.31
  Q 1269.67 422.07 1294.95 414.61
  Q 1298.71 413.50 1303.73 414.34
  Z
  M 918.12 521.09
  L 978.09 582.19
  Q 978.48 582.59 979.02 582.45
  L 1125.43 543.21
  Q 1126.17 543.02 1125.61 542.49
  L 1041.37 463.61
  A 0.46 0.45 -33.9 0 1 1041.52 462.85
  Q 1057.04 456.95 1064.92 452.44
  C 1087.56 439.49 1107.52 417.61 1114.93 392.40
  C 1119.53 376.78 1119.95 358.56 1113.19 343.81
  C 1104.03 323.79 1084.05 313.76 1061.99 315.48
  Q 1046.53 316.68 1029.79 321.19
  Q 910.40 353.34 790.89 385.43
  Q 790.43 385.55 790.43 386.04
  L 790.43 632.48
  Q 790.43 632.98 790.92 632.85
  L 917.13 599.03
  Q 917.68 598.89 917.68 598.31
  L 917.69 521.27
  Q 917.69 520.66 918.12 521.09
  Z
  M 597.93 539.48
  A 0.32 0.32 0.0 0 1 597.53 539.17
  L 597.53 516.88
  A 0.32 0.32 0.0 0 1 597.77 516.57
  L 753.84 474.74
  A 0.32 0.32 0.0 0 0 754.08 474.43
  L 754.08 395.67
  A 0.32 0.32 0.0 0 0 753.68 395.36
  L 470.52 471.24
  A 0.32 0.32 0.0 0 0 470.28 471.55
  L 470.28 718.35
  A 0.32 0.32 0.0 0 0 470.68 718.66
  L 753.84 642.78
  A 0.32 0.32 0.0 0 0 754.08 642.47
  L 754.08 578.19
  A 0.32 0.32 0.0 0 0 753.68 577.88
  L 597.93 619.61
  A 0.32 0.32 0.0 0 1 597.53 619.30
  L 597.54 599.23
  A 0.32 0.32 0.0 0 1 597.78 598.92
  L 753.84 557.09
  A 0.32 0.32 0.0 0 0 754.08 556.78
  L 754.08 498.06
  A 0.32 0.32 0.0 0 0 753.68 497.75
  L 597.93 539.48
  Z
  M 236.36 725.08
  Q 271.82 715.63 307.40 705.77
  C 337.32 697.48 365.14 685.60 388.77 666.30
  C 420.88 640.07 439.10 600.64 436.74 559.00
  C 435.38 535.21 425.18 513.00 401.88 504.62
  C 382.07 497.49 359.53 500.99 339.74 506.29
  Q 224.51 537.14 109.13 568.09
  A 0.75 0.73 -7.8 0 0 108.58 568.80
  L 108.59 815.00
  Q 108.59 815.69 109.26 815.52
  L 235.27 781.75
  Q 235.87 781.59 235.87 780.98
  L 235.86 725.73
  Q 235.86 725.21 236.36 725.08
  Z
  M 1154.35 638.90
  C 1136.79 675.62 1131.97 721.86 1149.34 759.44
  C 1164.44 792.12 1195.44 807.05 1230.50 806.42
  C 1251.87 806.03 1272.30 802.22 1293.27 797.57
  Q 1363.92 781.92 1430.39 752.95
  Q 1430.87 752.74 1430.87 752.21
  L 1430.87 665.36
  A 0.35 0.35 0.0 0 0 1430.36 665.05
  C 1395.53 682.86 1357.84 696.50 1319.43 704.23
  C 1307.67 706.60 1285.42 710.04 1277.55 697.91
  Q 1275.26 694.39 1274.38 687.98
  C 1270.70 661.31 1288.98 644.88 1311.84 636.05
  Q 1334.93 627.13 1361.01 621.78
  Q 1397.23 614.34 1434.30 610.98
  Q 1434.95 610.92 1434.96 610.27
  L 1435.32 512.76
  Q 1435.32 512.23 1434.79 512.28
  Q 1367.81 519.22 1302.66 535.94
  C 1243.04 551.24 1182.38 580.29 1154.35 638.90
  Z
  M 1005.07 848.77
  A 0.34 0.34 0.0 0 1 1005.49 849.00
  L 1014.18 877.88
  A 0.34 0.34 0.0 0 0 1014.60 878.11
  L 1143.76 843.50
  A 0.34 0.34 0.0 0 0 1143.99 843.07
  L 1065.71 615.38
  A 0.34 0.34 0.0 0 0 1065.30 615.16
  L 863.01 669.36
  A 0.34 0.34 0.0 0 0 862.78 669.59
  L 783.37 939.54
  A 0.34 0.34 0.0 0 0 783.79 939.96
  L 914.99 904.81
  A 0.34 0.34 0.0 0 0 915.23 904.57
  L 924.01 870.66
  A 0.34 0.34 0.0 0 1 924.25 870.42
  L 1005.07 848.77
  Z
  M 627.07 824.78
  C 623.24 825.77 617.11 825.44 616.48 820.98
  C 615.02 810.69 626.93 805.96 634.74 803.74
  Q 699.99 785.19 767.30 776.69
  Q 767.71 776.64 767.71 776.23
  L 767.71 702.52
  A 0.41 0.40 -2.0 0 0 767.27 702.12
  Q 684.57 708.78 605.58 734.16
  C 576.24 743.59 545.41 756.60 521.50 775.71
  C 493.82 797.84 480.47 830.88 483.22 866.13
  C 485.63 896.98 503.65 916.36 536.55 915.90
  C 554.16 915.65 572.00 911.83 589.20 908.28
  C 603.37 905.36 617.92 901.37 632.20 897.56
  C 635.16 896.77 644.26 894.63 644.72 899.76
  C 645.62 909.74 636.87 913.95 628.69 916.14
  C 582.63 928.49 536.95 936.09 490.02 941.41
  Q 489.49 941.47 489.49 942.00
  L 489.49 1010.51
  Q 489.49 1011.09 490.07 1011.04
  C 548.98 1006.65 603.94 995.05 660.50 977.45
  Q 686.07 969.50 704.71 959.46
  C 740.12 940.40 771.08 908.53 776.69 867.01
  C 780.61 838.06 767.39 806.95 734.50 804.81
  C 714.31 803.49 692.33 808.21 672.54 813.20
  Q 649.79 818.94 627.07 824.78
  Z"
/>
<path fill="#225ba6" d="
  M 1806.77 241.51
  C 1806.14 287.56 1787.49 331.26 1750.64 360.13
  C 1707.83 393.68 1655.22 410.67 1601.74 421.20
  C 1571.59 427.14 1535.85 429.16 1507.98 417.04
  C 1483.69 406.47 1471.42 380.69 1467.35 355.45
  C 1458.75 302.12 1473.96 246.68 1515.38 210.88
  C 1559.60 172.66 1617.93 153.71 1675.25 143.31
  C 1701.17 138.61 1731.31 137.10 1756.22 146.16
  C 1797.81 161.31 1807.32 201.98 1806.77 241.51
  Z
  M 1672.83 308.04
  Q 1681.22 284.97 1677.31 258.74
  C 1673.22 231.23 1648.97 229.65 1627.90 238.30
  C 1594.53 252.00 1589.16 287.40 1596.00 318.75
  C 1601.34 343.27 1620.14 348.47 1641.77 339.96
  Q 1664.47 331.04 1672.83 308.04
  Z"
/>
<path fill="#225ba6" d="
  M 1303.73 414.34
  Q 1298.71 413.50 1294.95 414.61
  Q 1269.67 422.07 1232.56 429.31
  C 1215.58 432.62 1196.93 435.46 1180.90 431.46
  C 1148.91 423.49 1142.45 390.42 1146.31 361.49
  C 1151.10 325.62 1171.59 300.23 1201.82 282.28
  Q 1228.94 266.18 1264.05 254.66
  Q 1344.02 228.41 1428.02 221.55
  A 0.44 0.43 -1.9 0 1 1428.49 221.98
  L 1428.49 293.72
  Q 1428.49 294.27 1427.94 294.34
  Q 1361.92 302.74 1298.01 320.75
  C 1290.42 322.88 1279.43 326.64 1277.29 335.20
  Q 1275.67 341.64 1281.67 344.28
  C 1283.34 345.01 1287.78 344.60 1290.05 344.00
  Q 1316.72 336.94 1343.50 330.30
  Q 1363.88 325.24 1384.74 324.22
  Q 1397.65 323.59 1404.62 325.31
  C 1431.59 332.00 1440.76 360.95 1437.44 385.50
  C 1431.65 428.41 1397.55 461.99 1360.40 479.91
  Q 1340.54 489.49 1317.48 496.50
  C 1261.16 513.62 1208.54 524.20 1152.43 528.55
  Q 1152.08 528.58 1152.08 528.23
  L 1152.07 461.24
  Q 1152.07 460.74 1152.57 460.68
  C 1200.46 455.06 1247.23 447.35 1293.77 434.60
  C 1301.14 432.58 1308.80 426.22 1307.32 417.50
  C 1307.03 415.80 1305.49 414.64 1303.73 414.34
  Z"
/>
<path fill="#ffffff" d="
  M 1672.83 308.04
  Q 1664.47 331.04 1641.77 339.96
  C 1620.14 348.47 1601.34 343.27 1596.00 318.75
  C 1589.16 287.40 1594.53 252.00 1627.90 238.30
  C 1648.97 229.65 1673.22 231.23 1677.31 258.74
  Q 1681.22 284.97 1672.83 308.04
  Z"
/>
<path fill="#225ba6" d="
  M 917.69 521.27
  L 917.68 598.31
  Q 917.68 598.89 917.13 599.03
  L 790.92 632.85
  Q 790.43 632.98 790.43 632.48
  L 790.43 386.04
  Q 790.43 385.55 790.89 385.43
  Q 910.40 353.34 1029.79 321.19
  Q 1046.53 316.68 1061.99 315.48
  C 1084.05 313.76 1104.03 323.79 1113.19 343.81
  C 1119.95 358.56 1119.53 376.78 1114.93 392.40
  C 1107.52 417.61 1087.56 439.49 1064.92 452.44
  Q 1057.04 456.95 1041.52 462.85
  A 0.46 0.45 -33.9 0 0 1041.37 463.61
  L 1125.61 542.49
  Q 1126.17 543.02 1125.43 543.21
  L 979.02 582.45
  Q 978.48 582.59 978.09 582.19
  L 918.12 521.09
  Q 917.69 520.66 917.69 521.27
  Z
  M 959.75 457.33
  C 980.86 451.56 993.92 439.31 991.89 416.48
  C 990.54 401.24 977.89 401.20 965.96 404.43
  Q 942.10 410.88 918.16 417.40
  Q 917.69 417.53 917.69 418.02
  L 917.69 468.01
  Q 917.69 468.60 918.26 468.45
  Q 939.07 462.99 959.75 457.33
  Z"
/>
<path fill="#225ba6" d="
  M 597.93 539.48
  L 753.68 497.75
  A 0.32 0.32 0.0 0 1 754.08 498.06
  L 754.08 556.78
  A 0.32 0.32 0.0 0 1 753.84 557.09
  L 597.78 598.92
  A 0.32 0.32 0.0 0 0 597.54 599.23
  L 597.53 619.30
  A 0.32 0.32 0.0 0 0 597.93 619.61
  L 753.68 577.88
  A 0.32 0.32 0.0 0 1 754.08 578.19
  L 754.08 642.47
  A 0.32 0.32 0.0 0 1 753.84 642.78
  L 470.68 718.66
  A 0.32 0.32 0.0 0 1 470.28 718.35
  L 470.28 471.55
  A 0.32 0.32 0.0 0 1 470.52 471.24
  L 753.68 395.36
  A 0.32 0.32 0.0 0 1 754.08 395.67
  L 754.08 474.43
  A 0.32 0.32 0.0 0 1 753.84 474.74
  L 597.77 516.57
  A 0.32 0.32 0.0 0 0 597.53 516.88
  L 597.53 539.17
  A 0.32 0.32 0.0 0 0 597.93 539.48
  Z"
/>
<path fill="#ffffff" d="
  M 991.89 416.48
  C 993.92 439.31 980.86 451.56 959.75 457.33
  Q 939.07 462.99 918.26 468.45
  Q 917.69 468.60 917.69 468.01
  L 917.69 418.02
  Q 917.69 417.53 918.16 417.40
  Q 942.10 410.88 965.96 404.43
  C 977.89 401.20 990.54 401.24 991.89 416.48
  Z"
/>
<path fill="#225ba6" d="
  M 236.36 725.08
  Q 235.86 725.21 235.86 725.73
  L 235.87 780.98
  Q 235.87 781.59 235.27 781.75
  L 109.26 815.52
  Q 108.59 815.69 108.59 815.00
  L 108.58 568.80
  A 0.75 0.73 -7.8 0 1 109.13 568.09
  Q 224.51 537.14 339.74 506.29
  C 359.53 500.99 382.07 497.49 401.88 504.62
  C 425.18 513.00 435.38 535.21 436.74 559.00
  C 439.10 600.64 420.88 640.07 388.77 666.30
  C 365.14 685.60 337.32 697.48 307.40 705.77
  Q 271.82 715.63 236.36 725.08
  Z
  M 312.68 607.25
  C 312.11 592.18 300.69 588.12 287.75 591.53
  Q 262.10 598.28 236.41 605.26
  Q 235.86 605.41 235.86 605.98
  L 235.86 656.73
  Q 235.86 657.21 236.32 657.09
  Q 257.45 651.60 278.53 645.93
  C 297.47 640.84 313.50 628.77 312.68 607.25
  Z"
/>
<path fill="#f64f6f" d="
  M 1154.35 638.90
  C 1182.38 580.29 1243.04 551.24 1302.66 535.94
  Q 1367.81 519.22 1434.79 512.28
  Q 1435.32 512.23 1435.32 512.76
  L 1434.96 610.27
  Q 1434.95 610.92 1434.30 610.98
  Q 1397.23 614.34 1361.01 621.78
  Q 1334.93 627.13 1311.84 636.05
  C 1288.98 644.88 1270.70 661.31 1274.38 687.98
  Q 1275.26 694.39 1277.55 697.91
  C 1285.42 710.04 1307.67 706.60 1319.43 704.23
  C 1357.84 696.50 1395.53 682.86 1430.36 665.05
  A 0.35 0.35 0.0 0 1 1430.87 665.36
  L 1430.87 752.21
  Q 1430.87 752.74 1430.39 752.95
  Q 1363.92 781.92 1293.27 797.57
  C 1272.30 802.22 1251.87 806.03 1230.50 806.42
  C 1195.44 807.05 1164.44 792.12 1149.34 759.44
  C 1131.97 721.86 1136.79 675.62 1154.35 638.90
  Z"
/>
<path fill="#ffffff" d="
  M 287.75 591.53
  C 300.69 588.12 312.11 592.18 312.68 607.25
  C 313.50 628.77 297.47 640.84 278.53 645.93
  Q 257.45 651.60 236.32 657.09
  Q 235.86 657.21 235.86 656.73
  L 235.86 605.98
  Q 235.86 605.41 236.41 605.26
  Q 262.10 598.28 287.75 591.53
  Z"
/>
<path fill="#f64f6f" d="
  M 1005.07 848.77
  L 924.25 870.42
  A 0.34 0.34 0.0 0 0 924.01 870.66
  L 915.23 904.57
  A 0.34 0.34 0.0 0 1 914.99 904.81
  L 783.79 939.96
  A 0.34 0.34 0.0 0 1 783.37 939.54
  L 862.78 669.59
  A 0.34 0.34 0.0 0 1 863.01 669.36
  L 1065.30 615.16
  A 0.34 0.34 0.0 0 1 1065.71 615.38
  L 1143.99 843.07
  A 0.34 0.34 0.0 0 1 1143.76 843.50
  L 1014.60 878.11
  A 0.34 0.34 0.0 0 1 1014.18 877.88
  L 1005.49 849.00
  A 0.34 0.34 0.0 0 0 1005.07 848.77
  Z
  M 940.47 796.10
  A 0.33 0.33 0.0 0 0 940.87 796.51
  L 989.61 783.46
  A 0.33 0.33 0.0 0 0 989.84 783.03
  L 965.98 716.47
  A 0.33 0.33 0.0 0 0 965.36 716.48
  L 940.47 796.10
  Z"
/>
<path fill="#f64f6f" d="
  M 616.48 820.98
  C 617.11 825.44 623.24 825.77 627.07 824.78
  Q 649.79 818.94 672.54 813.20
  C 692.33 808.21 714.31 803.49 734.50 804.81
  C 767.39 806.95 780.61 838.06 776.69 867.01
  C 771.08 908.53 740.12 940.40 704.71 959.46
  Q 686.07 969.50 660.50 977.45
  C 603.94 995.05 548.98 1006.65 490.07 1011.04
  Q 489.49 1011.09 489.49 1010.51
  L 489.49 942.00
  Q 489.49 941.47 490.02 941.41
  C 536.95 936.09 582.63 928.49 628.69 916.14
  C 636.87 913.95 645.62 909.74 644.72 899.76
  C 644.26 894.63 635.16 896.77 632.20 897.56
  C 617.92 901.37 603.37 905.36 589.20 908.28
  C 572.00 911.83 554.16 915.65 536.55 915.90
  C 503.65 916.36 485.63 896.98 483.22 866.13
  C 480.47 830.88 493.82 797.84 521.50 775.71
  C 545.41 756.60 576.24 743.59 605.58 734.16
  Q 684.57 708.78 767.27 702.12
  A 0.41 0.40 -2.0 0 1 767.71 702.52
  L 767.71 776.23
  Q 767.71 776.64 767.30 776.69
  Q 699.99 785.19 634.74 803.74
  C 626.93 805.96 615.02 810.69 616.48 820.98
  Z"
/>
<path fill="#ffffff" d="
  M 940.47 796.10
  L 965.36 716.48
  A 0.33 0.33 0.0 0 1 965.98 716.47
  L 989.84 783.03
  A 0.33 0.33 0.0 0 1 989.61 783.46
  L 940.87 796.51
  A 0.33 0.33 0.0 0 1 940.47 796.10
  Z"
/>
</svg>
