<?xml version="1.0" encoding="UTF-8" standalone="no"?>
<!DOCTYPE svg PUBLIC "-//W3C//DTD SVG 1.1//EN" "http://www.w3.org/Graphics/SVG/1.1/DTD/svg11.dtd">
<svg xmlns="http://www.w3.org/2000/svg" version="1.1" viewBox="0.00 0.00 767.00 506.00">
<path stroke="#8a5b85" stroke-width="2.00" fill="none" stroke-linecap="butt" vector-effect="non-scaling-stroke" d="
  M 503.62 500.73
  Q 498.41 496.06 495.57 490.15
  C 489.29 477.04 494.86 461.82 508.01 455.52
  Q 510.00 454.57 511.83 453.23"
/>
<path fill="#2a548e" d="
  M 204.53 198.62
  A 0.84 0.83 0.0 0 0 205.37 199.45
  L 257.01 199.46
  A 0.55 0.55 0.0 0 1 257.56 200.01
  L 257.56 237.80
  A 0.36 0.36 0.0 0 1 257.20 238.16
  L 205.22 238.09
  A 0.69 0.69 0.0 0 0 204.53 238.78
  L 204.54 265.42
  A 0.88 0.88 0.0 0 0 205.42 266.30
  L 269.48 266.36
  Q 270.10 266.36 270.10 266.98
  L 270.16 306.71
  A 0.66 0.61 -0.4 0 1 269.50 307.33
  L 157.14 307.31
  Q 156.14 307.31 156.14 306.32
  Q 156.03 177.31 156.06 48.75
  Q 156.06 45.82 156.33 43.79
  A 1.45 1.40 -19.8 0 1 156.74 42.96
  L 198.86 0.85
  Q 199.23 0.47 199.76 0.47
  L 458.32 0.47
  A 2.37 2.35 -22.4 0 1 459.99 1.16
  Q 479.36 20.53 499.17 40.33
  Q 500.57 41.73 500.58 44.25
  Q 500.71 84.34 500.76 124.50
  A 0.48 0.48 0.0 0 1 500.28 124.98
  L 452.74 124.98
  A 0.49 0.49 0.0 0 1 452.25 124.49
  L 452.24 42.50
  A 0.74 0.74 0.0 0 0 451.50 41.76
  L 205.01 41.76
  Q 204.54 41.76 204.54 42.24
  L 204.53 198.62
  Z"
/>
<path fill="#2a548e" d="
  M 522.64 258.98
  C 523.71 251.32 518.31 247.51 511.43 245.26
  C 478.49 234.50 438.28 226.11 444.15 181.01
  C 448.23 149.65 474.49 135.27 503.67 134.41
  Q 534.21 133.51 562.18 146.29
  A 1.32 1.31 -77.8 0 1 562.95 147.49
  L 562.95 190.54
  Q 562.95 191.44 562.16 191.01
  Q 545.16 181.71 526.61 177.13
  C 518.78 175.20 494.68 170.01 492.86 183.12
  C 491.79 190.75 497.63 194.23 504.02 196.14
  C 536.80 205.96 577.08 216.88 571.42 261.74
  C 566.86 297.86 532.98 311.37 500.50 309.91
  Q 474.00 308.73 449.72 298.23
  Q 448.75 297.81 448.75 296.76
  L 448.72 252.49
  Q 448.72 252.20 448.97 252.34
  Q 469.42 263.92 492.50 268.29
  C 501.46 269.99 520.73 272.62 522.64 258.98
  Z"
/>
<path fill="#2a548e" d="
  M 767.00 215.54
  L 767.00 228.77
  Q 764.84 252.87 751.37 272.08
  C 713.68 325.79 626.96 321.69 595.28 263.73
  C 578.23 232.55 582.21 192.01 606.09 164.97
  C 637.33 129.57 693.33 124.01 731.29 151.80
  Q 762.79 174.86 767.00 215.54
  Z
  M 675.8725 266.4499
  A 44.39 42.74 90.1 0 0 718.6899 222.1346
  A 44.39 42.74 90.1 0 0 676.0275 177.6701
  A 44.39 42.74 90.1 0 0 633.2101 221.9854
  A 44.39 42.74 90.1 0 0 675.8725 266.4499
  Z"
/>
<path fill="#2a548e" d="
  M 49.52 250.56
  Q 49.39 250.65 49.39 250.81
  L 49.43 306.63
  A 0.68 0.68 0.0 0 1 48.75 307.31
  L 1.58 307.32
  Q 0.35 307.32 0.35 306.09
  L 0.31 138.00
  Q 0.31 136.89 1.43 136.88
  Q 28.32 136.67 55.99 136.61
  C 89.76 136.53 131.01 144.33 136.64 185.25
  C 140.22 211.30 128.35 232.66 103.98 242.64
  C 87.40 249.42 68.22 251.00 50.50 250.30
  Q 49.97 250.28 49.52 250.56
  Z
  M 49.36 176.17
  L 49.42 212.97
  A 0.53 0.53 0.0 0 0 49.95 213.50
  L 68.43 213.47
  A 20.33 17.31 -0.1 0 0 88.73 196.13
  L 88.73 192.89
  A 20.33 17.31 -0.1 0 0 68.37 175.61
  L 49.89 175.64
  A 0.53 0.53 0.0 0 0 49.36 176.17
  Z"
/>
<rect fill="#2a548e" x="209.68" y="136.79" width="60.56" height="40.90" rx="0.60"/>
<path fill="#2a548e" d="
  M 340.69 242.62
  A 0.61 0.60 88.0 0 0 340.13 243.23
  L 340.13 306.84
  Q 340.13 307.32 339.65 307.32
  L 292.63 307.31
  A 0.93 0.93 0.0 0 1 291.70 306.38
  L 291.69 137.48
  A 0.68 0.67 -90.0 0 1 292.36 136.80
  Q 321.14 136.73 350.00 136.72
  C 381.21 136.71 419.68 143.02 425.94 180.48
  C 429.98 204.66 418.83 226.04 396.00 235.33
  A 0.71 0.70 -27.3 0 0 395.67 236.36
  L 440.21 306.86
  Q 440.52 307.34 439.94 307.34
  L 386.45 307.32
  A 1.45 1.44 74.8 0 1 385.20 306.60
  Q 366.99 275.49 348.73 244.27
  C 348.11 243.20 347.76 242.62 346.40 242.54
  Q 343.45 242.39 340.69 242.62
  Z
  M 340.18 175.85
  L 340.06 208.83
  A 0.36 0.36 0.0 0 0 340.42 209.19
  L 358.92 209.26
  A 19.14 15.20 0.2 0 0 378.11 194.13
  L 378.13 190.83
  A 19.14 15.20 0.2 0 0 359.04 175.56
  L 340.54 175.50
  A 0.36 0.36 0.0 0 0 340.18 175.85
  Z"
/>
<path fill="#2a548e" d="
  M 79.86 454.74
  C 81.77 444.58 71.94 441.03 63.66 438.70
  C 48.42 434.43 32.92 429.76 19.83 420.93
  C 2.78 409.44 -3.18 388.17 2.71 368.72
  C 17.86 318.71 82.91 325.28 119.04 341.18
  Q 120.53 341.84 120.51 343.50
  Q 120.21 364.88 120.24 386.13
  Q 120.24 386.69 119.75 386.42
  Q 100.64 375.86 79.23 371.44
  C 71.19 369.78 50.99 366.22 50.17 379.50
  C 49.71 387.11 56.23 389.94 62.47 391.78
  C 90.58 400.08 125.85 409.18 128.99 444.73
  C 131.31 471.07 116.90 492.23 92.04 500.59
  C 74.10 506.62 57.34 506.42 38.97 503.19
  Q 22.36 500.27 6.74 493.29
  A 1.14 1.13 -78.0 0 1 6.07 492.25
  L 6.06 448.01
  Q 6.06 447.51 6.50 447.75
  Q 26.20 458.75 48.24 463.24
  C 57.36 465.10 77.30 468.37 79.86 454.74
  Z"
/>
<path fill="#2a548e" d="
  M 404.34 373.53
  C 381.41 377.72 366.30 396.28 367.58 419.49
  C 368.87 443.13 385.65 459.04 408.55 461.56
  C 427.98 463.69 447.22 457.81 463.57 447.49
  A 0.31 0.31 0.0 0 1 464.05 447.75
  L 464.02 494.30
  A 1.24 1.24 0.0 0 1 463.29 495.43
  C 451.92 500.49 439.74 503.25 427.38 504.74
  C 412.19 506.58 397.48 505.01 382.76 500.79
  C 350.78 491.62 326.88 467.60 320.51 434.26
  C 316.22 411.83 320.74 387.63 333.73 368.72
  C 361.87 327.78 418.03 320.95 460.88 338.73
  Q 461.73 339.08 461.73 339.99
  L 461.74 386.08
  Q 461.74 386.76 461.16 386.40
  C 444.63 376.30 423.64 370.01 404.34 373.53
  Z"
/>
<path fill="#2a548e" d="
  M 255.90 467.72
  L 197.97 467.72
  A 0.34 0.34 0.0 0 0 197.65 467.95
  L 185.34 502.35
  A 0.34 0.34 0.0 0 1 185.02 502.58
  L 135.60 502.60
  A 0.34 0.34 0.0 0 1 135.29 502.13
  L 204.05 332.20
  A 0.34 0.34 0.0 0 1 204.37 331.99
  L 251.63 332.00
  A 0.34 0.34 0.0 0 1 251.95 332.21
  L 320.70 502.12
  A 0.34 0.34 0.0 0 1 320.39 502.59
  L 268.37 502.59
  A 0.34 0.34 0.0 0 1 268.05 502.36
  L 256.22 467.95
  A 0.34 0.34 0.0 0 0 255.90 467.72
  Z
  M 211.09 431.43
  A 0.33 0.33 0.0 0 0 211.40 431.87
  L 243.07 431.98
  A 0.33 0.33 0.0 0 0 243.39 431.54
  L 227.71 385.13
  A 0.33 0.33 0.0 0 0 227.09 385.13
  L 211.09 431.43
  Z"
/>
<path fill="#e9617c" d="
  M 520.84 506.00
  L 516.50 506.00
  Q 509.31 504.83 503.62 500.73
  Q 498.41 496.06 495.57 490.15
  C 489.29 477.04 494.86 461.82 508.01 455.52
  Q 510.00 454.57 511.83 453.23
  C 535.03 447.35 554.37 472.05 541.57 492.99
  Q 535.10 503.57 520.84 506.00
  Z"
/>
<path fill="#2a548e" d="
  M 511.83 453.23
  Q 510.00 454.57 508.01 455.52
  C 494.86 461.82 489.29 477.04 495.57 490.15
  Q 498.41 496.06 503.62 500.73
  C 484.37 488.01 489.92 459.16 511.83 453.23
  Z"
/>
</svg>
