<?xml version="1.0" encoding="UTF-8" standalone="no"?>
<!DOCTYPE svg PUBLIC "-//W3C//DTD SVG 1.1//EN" "http://www.w3.org/Graphics/SVG/1.1/DTD/svg11.dtd">
<svg xmlns="http://www.w3.org/2000/svg" version="1.1" viewBox="0.00 0.00 1409.00 1374.00">
<path fill="#ffffff" d="
  M 1064.74 0.00
  L 1068.82 0.00
  C 1081.46 2.22 1084.21 10.63 1084.23 22.36
  Q 1084.28 57.36 1084.24 92.35
  C 1084.21 112.76 1067.39 113.36 1051.71 117.66
  Q 1051.25 117.78 1051.25 118.26
  L 1051.25 135.74
  Q 1051.25 136.27 1051.76 136.13
  Q 1059.80 133.98 1067.84 131.82
  C 1079.44 128.70 1084.34 132.63 1084.26 144.60
  Q 1084.16 158.74 1084.29 172.90
  Q 1084.30 173.65 1084.75 173.06
  Q 1094.18 160.66 1107.88 153.24
  A 1.87 1.85 73.8 0 0 1108.85 151.46
  C 1106.54 118.28 1129.85 90.08 1161.19 81.83
  Q 1192.08 73.69 1222.94 65.41
  C 1247.08 58.93 1270.84 72.88 1270.92 99.26
  Q 1271.21 194.47 1271.26 289.68
  Q 1271.27 303.47 1270.02 309.60
  C 1266.14 328.65 1253.51 345.12 1236.97 355.12
  A 0.75 0.75 0.0 0 0 1236.60 355.75
  L 1236.25 372.00
  Q 1236.24 372.48 1236.71 372.36
  Q 1309.89 352.61 1383.02 332.85
  C 1395.78 329.40 1406.52 331.94 1409.00 347.06
  L 1409.00 374.31
  Q 1406.32 389.90 1393.75 397.80
  C 1387.88 401.49 1379.33 403.19 1372.12 405.05
  A 0.43 0.43 0.0 0 0 1371.84 405.66
  C 1375.96 414.03 1374.21 427.23 1374.24 436.42
  C 1374.28 449.10 1368.66 459.85 1357.87 466.37
  Q 1353.46 469.03 1343.51 471.72
  Q 1225.87 503.46 1104.42 536.30
  A 0.68 0.66 82.8 0 0 1103.93 536.95
  Q 1104.17 769.43 1104.30 1002.29
  C 1104.30 1016.60 1100.22 1022.77 1086.28 1026.56
  Q 1078.24 1028.74 1070.03 1030.95
  A 0.73 0.72 -7.2 0 0 1069.48 1031.65
  Q 1069.50 1050.48 1069.51 1069.02
  C 1069.52 1085.13 1064.56 1091.32 1049.11 1095.49
  Q 1033.96 1099.59 1018.80 1103.69
  C 1010.75 1105.87 1003.33 1107.33 999.32 1099.05
  Q 998.03 1096.38 998.02 1091.59
  Q 998.00 828.61 997.66 565.63
  Q 997.66 565.15 997.20 565.28
  L 989.52 567.31
  Q 988.91 567.47 989.22 568.01
  Q 995.43 579.13 995.46 591.56
  Q 995.58 638.27 995.48 748.35
  Q 995.47 759.63 994.75 764.49
  C 991.67 785.37 978.41 803.94 961.04 815.67
  Q 960.60 815.96 960.63 816.49
  C 962.78 851.07 939.86 881.02 907.99 892.46
  Q 907.52 892.62 907.52 893.12
  Q 907.45 948.44 907.52 1003.75
  Q 907.52 1009.97 906.24 1013.58
  C 900.91 1028.62 887.15 1029.53 873.38 1033.40
  A 0.86 0.85 82.5 0 0 872.75 1034.23
  Q 872.74 1052.56 872.75 1070.88
  C 872.76 1080.75 869.65 1088.53 861.53 1093.98
  Q 857.73 1096.53 848.32 1099.06
  Q 835.67 1102.47 822.99 1105.89
  C 814.84 1108.08 806.50 1107.57 802.85 1099.19
  Q 801.24 1095.50 801.24 1085.09
  Q 801.26 1006.38 801.25 927.70
  Q 801.25 927.24 800.80 927.36
  L 781.03 932.79
  Q 780.69 932.88 780.79 933.22
  Q 781.86 937.06 781.95 943.25
  Q 782.14 956.15 781.90 969.04
  C 781.71 979.65 777.08 988.52 767.96 994.00
  C 760.49 998.49 747.29 1000.68 737.78 1003.40
  Q 737.26 1003.55 737.26 1004.09
  Q 737.24 1020.75 737.23 1037.41
  Q 737.22 1047.26 735.90 1052.84
  C 731.65 1070.82 719.19 1086.18 703.02 1094.99
  A 0.93 0.90 -14.5 0 0 702.54 1095.77
  C 702.37 1102.88 703.02 1110.76 701.70 1117.20
  C 696.88 1140.82 679.36 1161.56 655.51 1168.03
  Q 623.03 1176.84 590.50 1185.52
  C 576.05 1189.38 561.44 1186.82 551.65 1175.30
  C 542.70 1164.78 542.96 1152.73 542.98 1138.94
  Q 542.99 1138.45 542.52 1138.59
  L 524.19 1143.92
  Q 523.78 1144.04 523.78 1144.46
  Q 523.68 1160.24 523.76 1176.02
  C 523.82 1188.46 519.69 1198.82 508.84 1205.43
  Q 504.44 1208.10 493.05 1211.12
  Q 483.82 1213.56 474.61 1216.06
  C 465.57 1218.51 457.78 1220.14 451.39 1213.46
  Q 448.58 1210.52 444.66 1200.16
  Q 421.74 1139.47 398.71 1078.86
  A 0.05 0.05 0.0 0 0 398.61 1078.88
  Q 398.77 1173.22 398.68 1266.18
  Q 398.66 1286.92 381.23 1295.14
  C 376.66 1297.30 369.99 1298.53 364.52 1300.11
  Q 364.02 1300.26 364.01 1300.78
  Q 363.96 1315.42 364.01 1330.05
  C 364.06 1343.67 361.10 1354.10 349.45 1361.52
  Q 345.24 1364.20 336.40 1366.62
  Q 326.14 1369.42 315.82 1372.05
  C 300.29 1376.02 292.44 1366.48 292.46 1352.03
  Q 292.66 1219.16 292.30 1086.28
  Q 292.29 1085.64 291.89 1086.14
  Q 283.91 1096.00 272.97 1102.48
  A 0.97 0.96 74.7 0 0 272.50 1103.31
  C 272.53 1109.73 272.63 1116.73 271.50 1122.68
  C 267.56 1143.45 254.08 1161.74 235.48 1171.91
  C 224.19 1178.08 208.02 1181.14 194.94 1184.54
  Q 194.44 1184.67 194.43 1185.19
  Q 193.92 1206.93 194.37 1216.94
  C 195.48 1241.73 181.47 1263.59 160.08 1275.44
  Q 159.63 1275.70 159.61 1276.22
  C 159.41 1283.26 159.93 1291.12 158.79 1297.38
  C 155.21 1317.04 142.11 1334.36 124.62 1343.75
  Q 119.41 1346.55 109.96 1349.14
  Q 81.75 1356.88 53.49 1364.42
  C 47.10 1366.12 40.82 1367.90 34.76 1367.78
  C 19.04 1367.45 6.88 1358.35 2.01 1343.60
  Q 0.26 1338.30 0.27 1334.94
  Q 0.39 1284.19 0.00 1233.44
  L 0.00 840.19
  C 2.25 817.08 17.03 797.05 37.72 786.89
  Q 38.21 786.65 38.23 786.11
  Q 38.32 783.11 38.21 778.24
  C 37.67 753.47 55.25 729.40 77.93 720.39
  Q 80.52 719.36 97.13 714.82
  Q 120.41 708.46 143.73 702.27
  Q 155.98 699.03 161.48 699.18
  C 181.29 699.74 194.23 714.79 194.26 734.26
  Q 194.30 766.53 194.24 798.82
  C 194.22 812.32 189.89 816.90 177.36 820.23
  Q 168.63 822.55 159.92 824.97
  A 0.58 0.57 -8.1 0 0 159.50 825.52
  L 159.50 852.74
  Q 159.50 853.33 159.87 852.87
  C 170.88 839.27 182.68 833.42 200.19 828.64
  Q 227.42 821.22 254.69 813.94
  C 268.07 810.37 279.46 809.45 291.71 817.07
  Q 292.15 817.34 292.23 816.83
  Q 294.44 801.87 306.01 793.97
  C 312.35 789.64 322.05 787.78 329.96 785.76
  Q 330.46 785.63 330.47 785.11
  Q 330.57 770.57 330.49 756.10
  C 330.42 743.13 334.70 732.98 346.59 726.66
  C 349.96 724.87 354.49 723.95 358.48 722.77
  Q 359.00 722.61 359.00 722.07
  Q 359.00 492.64 359.00 263.21
  C 359.00 250.19 364.44 244.21 376.67 240.86
  Q 386.59 238.14 396.31 235.53
  A 1.33 1.32 81.7 0 0 397.29 234.21
  Q 396.76 215.16 397.11 197.02
  C 397.30 187.27 400.44 179.18 410.25 176.51
  Q 450.52 165.60 490.81 154.81
  Q 497.90 152.91 506.30 153.24
  C 535.30 154.37 552.90 175.92 553.05 204.32
  Q 553.31 252.68 553.25 301.06
  Q 553.25 301.58 553.75 301.44
  L 573.74 295.95
  Q 574.24 295.82 574.24 295.30
  Q 574.27 280.95 574.24 266.70
  C 574.21 254.59 576.17 245.53 586.16 238.95
  Q 590.17 236.30 600.50 233.51
  Q 647.21 220.86 693.93 208.29
  C 703.70 205.66 710.94 204.63 716.35 213.83
  Q 716.66 214.35 717.05 213.90
  Q 721.64 208.78 725.49 207.72
  Q 737.21 204.48 748.95 201.32
  Q 749.47 201.18 749.47 200.65
  Q 749.56 183.24 749.49 165.97
  C 749.43 151.16 754.52 144.61 768.68 140.76
  Q 812.89 128.72 857.17 116.90
  Q 875.34 112.05 891.32 123.44
  Q 891.78 123.77 891.90 123.22
  Q 895.67 106.17 910.26 98.04
  C 915.11 95.34 921.86 94.08 927.68 92.40
  A 0.75 0.73 82.6 0 0 928.21 91.70
  Q 928.35 79.95 928.23 68.31
  Q 928.13 58.47 929.35 53.79
  C 932.88 40.32 942.26 32.86 955.29 29.29
  Q 1009.99 14.31 1064.74 0.00
  Z
  M 1016.22 92.84
  C 1016.16 77.62 996.31 85.39 996.29 98.25
  Q 996.26 118.25 996.24 138.26
  C 996.23 145.47 998.15 150.59 1006.58 148.33
  Q 1026.84 142.90 1047.19 137.35
  Q 1047.70 137.21 1047.71 136.68
  L 1047.77 119.30
  Q 1047.77 118.74 1047.22 118.88
  Q 1039.48 120.95 1031.73 123.03
  C 1019.52 126.31 1016.30 120.03 1016.27 108.78
  Q 1016.25 100.81 1016.22 92.84
  Z
  M 995.27 337.77
  C 995.29 353.03 1010.51 348.96 1014.95 339.73
  Q 1016.28 336.98 1016.31 332.03
  Q 1016.67 278.60 1016.16 225.17
  C 1016.09 217.84 1011.72 216.30 1005.12 218.07
  Q 974.67 226.24 944.21 234.48
  C 936.00 236.71 928.26 234.68 928.26 224.49
  Q 928.25 160.51 928.25 96.51
  Q 928.25 95.93 927.69 96.09
  C 922.76 97.51 916.99 98.67 912.78 100.81
  Q 897.71 108.46 895.15 126.14
  A 1.11 1.07 30.2 0 0 895.40 127.02
  Q 905.42 138.95 905.44 154.76
  Q 905.50 227.38 905.51 300.05
  Q 905.51 300.55 906.00 300.42
  L 926.81 294.81
  Q 927.25 294.70 927.25 294.24
  C 927.21 278.84 927.21 269.23 943.82 264.61
  Q 961.64 259.66 979.52 254.96
  C 990.71 252.01 995.27 256.31 995.26 267.60
  Q 995.23 302.69 995.27 337.77
  Z
  M 1176.76 289.54
  C 1176.76 308.36 1197.96 301.01 1202.09 289.07
  Q 1203.21 285.85 1203.23 276.79
  Q 1203.39 215.70 1203.02 154.60
  C 1202.90 135.85 1182.35 143.19 1177.92 154.92
  Q 1176.74 158.05 1176.74 164.22
  Q 1176.75 226.90 1176.76 289.54
  Z
  M 1156.55 378.87
  C 1131.03 385.63 1108.76 369.97 1108.76 343.25
  Q 1108.74 250.28 1108.75 157.46
  A 0.37 0.37 0.0 0 0 1108.20 157.14
  Q 1094.62 164.93 1085.60 177.83
  C 1084.87 178.88 1084.26 179.90 1084.26 181.26
  Q 1084.22 265.76 1084.28 350.26
  C 1084.29 367.45 1087.04 381.60 1074.25 394.15
  Q 1073.89 394.50 1073.90 395.00
  L 1074.26 415.49
  A 0.59 0.59 0.0 0 0 1075.00 416.05
  L 1231.92 373.66
  Q 1232.56 373.49 1232.58 372.83
  L 1232.99 358.04
  Q 1233.01 357.20 1232.25 357.54
  Q 1227.21 359.79 1225.69 360.21
  Q 1191.16 369.69 1156.55 378.87
  Z
  M 820.94 328.56
  C 827.11 332.16 833.84 327.03 836.40 321.38
  Q 837.49 318.97 837.49 313.96
  Q 837.51 258.40 837.49 202.84
  C 837.48 188.66 822.40 193.40 818.68 202.13
  Q 817.50 204.87 817.50 210.54
  Q 817.49 266.14 817.48 321.75
  Q 817.48 326.55 820.94 328.56
  Z
  M 715.49 520.67
  C 727.14 524.95 734.44 534.40 736.48 546.64
  Q 736.56 547.14 737.05 547.01
  L 749.70 543.62
  Q 750.20 543.48 750.21 542.97
  C 750.35 535.92 749.35 527.18 751.17 520.69
  Q 756.81 500.53 778.68 496.16
  A 0.72 0.71 -6.0 0 0 779.25 495.46
  L 779.25 481.00
  Q 779.25 480.42 778.69 480.57
  C 767.56 483.61 749.69 491.47 749.65 471.55
  Q 749.37 338.56 749.54 205.55
  Q 749.54 205.03 749.04 205.15
  Q 732.35 209.20 727.24 210.96
  Q 722.59 212.56 719.02 216.94
  C 717.79 218.44 717.92 219.38 717.96 221.25
  Q 718.24 235.45 717.75 254.50
  C 717.67 257.78 715.00 261.27 715.01 264.99
  Q 715.03 286.80 714.92 308.63
  Q 714.92 309.13 715.19 309.55
  Q 717.92 313.86 717.96 319.50
  Q 718.12 343.62 717.95 350.19
  C 717.83 354.71 714.98 358.59 714.99 362.95
  Q 715.02 397.59 714.98 432.22
  C 714.98 433.46 714.36 436.81 715.18 438.08
  Q 718.01 442.48 718.01 447.75
  Q 718.03 463.72 717.97 479.69
  C 717.95 483.58 714.98 487.46 714.98 491.76
  Q 715.00 505.87 715.00 519.98
  Q 715.00 520.49 715.49 520.67
  Z
  M 465.26 403.66
  C 465.26 411.55 472.96 414.05 478.78 409.72
  C 484.44 405.51 485.24 401.86 485.25 394.51
  Q 485.26 316.51 485.24 238.51
  C 485.23 223.75 471.35 225.95 466.57 235.68
  Q 465.26 238.34 465.26 243.19
  Q 465.23 323.42 465.26 403.66
  Z
  M 385.21 715.76
  C 395.53 713.25 401.05 719.11 404.54 728.08
  Q 407.53 735.78 410.39 743.50
  A 0.63 0.63 0.0 0 0 411.15 743.88
  C 423.02 740.59 427.02 736.15 427.01 723.43
  Q 426.99 704.14 427.00 684.98
  A 0.46 0.45 81.9 0 0 426.42 684.54
  C 418.06 686.88 397.25 696.05 397.25 678.75
  Q 397.25 459.16 397.25 239.55
  Q 397.25 239.04 396.75 239.17
  Q 379.59 243.68 375.00 245.00
  C 365.35 247.78 362.50 254.34 362.50 263.96
  Q 362.49 492.44 362.51 720.80
  Q 362.51 721.73 363.41 721.48
  Q 373.94 718.50 385.21 715.76
  Z
  M 683.82 308.71
  C 692.36 306.36 702.10 302.02 710.78 305.61
  Q 711.27 305.81 711.27 305.28
  L 711.24 268.75
  Q 711.24 268.17 710.85 268.60
  C 703.42 276.71 692.32 278.00 682.45 280.66
  Q 681.92 280.80 682.06 281.33
  C 684.22 289.70 683.21 299.57 683.27 308.30
  Q 683.28 308.87 683.82 308.71
  Z
  M 642.71 319.80
  L 678.84 310.07
  Q 679.45 309.91 679.46 309.28
  C 679.56 301.40 680.76 289.74 678.51 282.38
  Q 678.32 281.78 677.72 281.94
  L 642.70 291.40
  Q 642.25 291.52 642.25 291.98
  L 642.25 319.45
  A 0.36 0.36 0.0 0 0 642.71 319.80
  Z
  M 905.50 330.18
  A 0.34 0.34 0.0 0 0 905.93 330.50
  L 927.00 324.78
  A 0.34 0.34 0.0 0 0 927.25 324.45
  L 927.25 298.83
  A 0.34 0.34 0.0 0 0 926.82 298.51
  L 905.75 304.22
  A 0.34 0.34 0.0 0 0 905.50 304.55
  L 905.50 330.18
  Z
  M 540.26 559.41
  C 562.30 556.60 558.20 582.40 558.27 595.09
  Q 558.27 595.72 558.88 595.56
  L 581.06 589.58
  Q 581.49 589.46 581.58 589.02
  C 586.24 564.27 603.50 544.29 628.08 537.61
  Q 653.58 530.67 679.12 523.81
  Q 679.58 523.69 679.63 523.20
  Q 680.32 515.92 678.76 508.82
  A 0.75 0.75 0.0 0 0 677.83 508.26
  Q 637.20 519.25 596.55 530.20
  C 583.64 533.68 574.49 529.88 574.50 515.14
  Q 574.59 407.62 574.16 300.09
  Q 574.16 299.54 573.63 299.69
  L 553.90 305.17
  Q 553.25 305.35 553.25 306.01
  Q 553.25 345.86 553.23 385.70
  Q 553.23 399.11 552.11 405.62
  C 550.23 416.62 546.08 426.12 540.76 435.94
  Q 539.74 437.82 539.74 439.93
  Q 539.75 499.45 539.75 558.96
  Q 539.75 559.47 540.26 559.41
  Z
  M 937.85 431.09
  C 928.66 427.33 927.44 419.67 927.48 409.89
  Q 927.66 369.45 927.27 328.97
  Q 927.27 328.43 926.75 328.57
  L 906.01 334.20
  Q 905.53 334.33 905.52 334.82
  Q 905.46 347.30 905.49 359.79
  C 905.51 368.96 902.54 375.39 894.69 380.11
  Q 894.25 380.37 894.25 380.88
  C 894.25 387.55 893.83 393.98 895.24 400.55
  Q 898.07 413.80 901.19 427.00
  C 903.25 435.69 901.89 442.25 894.83 447.82
  A 1.51 1.50 71.3 0 0 894.25 449.01
  L 894.25 464.18
  Q 894.25 464.87 894.92 464.69
  L 1047.04 423.61
  Q 1047.75 423.41 1047.75 422.68
  L 1047.75 406.27
  Q 1047.75 405.60 1047.09 405.77
  Q 1003.13 417.66 959.25 429.49
  C 951.92 431.46 945.26 434.13 937.85 431.09
  Z
  M 644.57 447.55
  C 644.02 447.70 643.17 447.57 642.53 448.18
  A 0.21 0.21 0.0 0 0 642.73 448.53
  Q 670.64 440.89 698.58 433.40
  Q 704.98 431.68 710.64 434.16
  Q 711.25 434.42 711.25 433.76
  L 711.26 366.50
  Q 711.26 366.03 710.94 366.37
  C 703.51 374.38 692.40 375.62 682.40 378.43
  Q 681.87 378.58 682.03 379.11
  C 684.62 387.86 683.24 400.38 683.26 409.63
  Q 683.28 419.23 681.85 423.75
  C 676.24 441.57 659.87 443.31 644.57 447.55
  Z
  M 642.25 390.26
  L 642.26 443.75
  Q 642.26 444.37 642.86 444.22
  C 662.23 439.23 679.12 437.22 679.64 413.01
  Q 679.95 398.53 679.43 384.04
  C 679.38 382.70 679.06 381.48 678.64 380.29
  Q 678.35 379.48 677.52 379.71
  L 643.24 388.97
  A 1.34 1.34 0.0 0 0 642.25 390.26
  Z
  M 1051.95 422.25
  L 1070.42 417.32
  Q 1070.75 417.23 1070.74 416.89
  L 1070.40 397.99
  Q 1070.39 397.64 1070.09 397.82
  Q 1061.57 402.72 1051.82 404.31
  Q 1051.25 404.40 1051.25 404.98
  L 1051.25 421.71
  Q 1051.25 422.43 1051.95 422.25
  Z
  M 854.50 460.11
  C 845.90 462.44 830.42 469.84 827.62 455.17
  Q 822.65 429.09 817.86 403.13
  A 0.18 0.18 0.0 0 0 817.50 403.16
  Q 817.51 427.85 817.49 452.61
  C 817.48 473.15 801.38 474.37 785.44 478.78
  A 0.61 0.61 0.0 0 0 785.00 479.48
  L 787.51 493.02
  Q 787.63 493.68 788.27 493.50
  L 857.77 474.74
  Q 858.41 474.57 858.26 473.93
  L 855.16 460.50
  Q 855.03 459.97 854.50 460.11
  Z
  M 1345.79 467.36
  C 1359.84 463.56 1370.27 453.82 1370.56 438.50
  C 1370.72 430.24 1372.73 413.45 1368.05 406.64
  Q 1367.78 406.25 1367.33 406.37
  L 1104.74 477.31
  A 1.01 1.00 82.5 0 0 1104.00 478.28
  L 1104.00 532.26
  A 0.33 0.32 -7.6 0 0 1104.41 532.57
  Q 1225.06 499.98 1345.79 467.36
  Z
  M 535.20 443.91
  Q 528.09 453.47 518.93 461.08
  Q 518.52 461.42 518.49 461.95
  C 516.99 495.86 495.29 525.56 465.63 540.92
  Q 465.25 541.11 465.25 541.54
  L 465.25 636.00
  Q 465.25 636.59 465.75 636.27
  C 472.87 631.72 481.56 630.21 489.71 628.07
  Q 490.22 627.94 490.23 627.41
  Q 490.30 614.39 490.25 601.37
  Q 490.21 591.33 491.57 586.75
  C 495.02 575.17 503.15 569.31 514.64 566.08
  Q 525.04 563.16 535.49 560.46
  Q 536.73 560.14 536.10 559.00
  Q 535.87 558.58 535.88 558.10
  C 536.29 526.07 535.97 494.04 536.25 462.02
  Q 536.33 453.19 535.91 444.13
  Q 535.85 443.02 535.20 443.91
  Z
  M 861.78 473.32
  A 0.31 0.31 0.0 0 0 862.16 473.55
  L 890.52 465.89
  A 0.31 0.31 0.0 0 0 890.75 465.59
  L 890.75 450.71
  A 0.31 0.31 0.0 0 0 890.36 450.42
  L 858.78 458.95
  A 0.31 0.31 0.0 0 0 858.56 459.32
  L 861.78 473.32
  Z
  M 465.97 536.70
  C 492.92 522.63 511.50 495.39 514.84 465.01
  A 0.43 0.43 0.0 0 0 514.15 464.62
  C 499.94 475.08 482.96 478.96 465.84 483.24
  Q 465.25 483.39 465.25 484.00
  L 465.25 536.26
  Q 465.25 537.07 465.97 536.70
  Z
  M 783.95 492.66
  Q 783.54 490.97 783.15 489.32
  A 0.07 0.07 0.0 0 0 783.01 489.34
  L 783.00 494.27
  A 0.49 0.49 0.0 0 0 783.97 494.39
  Q 784.18 493.59 783.95 492.66
  Z
  M 710.55 495.30
  C 702.84 503.16 692.37 504.39 682.49 506.96
  Q 682.03 507.08 682.15 507.54
  Q 683.90 514.75 683.11 522.18
  Q 683.05 522.77 683.62 522.61
  C 692.94 520.02 701.09 517.64 710.93 519.39
  Q 711.46 519.48 711.46 518.94
  L 711.52 495.70
  Q 711.52 494.31 710.55 495.30
  Z
  M 939.43 552.87
  C 957.16 548.13 973.71 549.31 986.38 563.97
  Q 986.72 564.37 987.23 564.23
  L 1000.74 560.57
  Q 1001.26 560.43 1001.26 560.96
  C 1001.24 737.78 1001.50 914.60 1001.51 1091.42
  C 1001.51 1100.78 1006.31 1103.28 1015.15 1100.92
  Q 1032.84 1096.20 1050.52 1091.38
  C 1061.19 1088.47 1065.60 1083.23 1065.90 1071.90
  C 1066.31 1056.76 1065.11 1046.10 1066.08 1033.18
  A 0.84 0.83 -5.2 0 0 1065.03 1032.31
  C 1057.79 1034.27 1042.72 1040.91 1037.84 1032.28
  Q 1036.30 1029.57 1036.30 1022.46
  Q 1036.16 759.47 1035.93 496.42
  A 0.42 0.42 0.0 0 0 1035.40 496.01
  Q 905.99 530.99 776.54 566.16
  C 768.42 568.37 760.77 568.79 754.56 562.20
  A 1.11 1.09 60.6 0 0 753.49 561.89
  L 737.82 566.10
  Q 737.24 566.26 737.24 566.86
  Q 737.26 595.30 737.24 623.75
  Q 737.24 627.24 733.94 632.08
  Q 733.47 632.77 734.28 632.55
  L 839.02 604.26
  A 0.65 0.64 -8.1 0 0 839.50 603.63
  C 839.48 599.75 839.17 595.51 840.23 591.91
  C 843.12 582.18 849.54 577.22 859.28 574.55
  Q 899.33 563.60 939.43 552.87
  Z
  M 737.19 551.26
  L 737.28 562.04
  Q 737.28 562.55 737.78 562.42
  L 751.52 558.70
  Q 752.05 558.55 751.85 558.04
  Q 749.92 553.07 750.29 547.72
  A 0.43 0.43 0.0 0 0 749.75 547.28
  L 737.74 550.54
  Q 737.19 550.69 737.19 551.26
  Z
  M 558.59 623.57
  Q 567.86 612.55 580.87 606.35
  A 0.68 0.66 77.6 0 0 581.25 605.74
  L 581.25 593.73
  Q 581.25 593.23 580.76 593.36
  L 559.00 599.26
  A 1.03 1.03 0.0 0 0 558.25 600.25
  L 558.25 623.44
  A 0.20 0.19 65.5 0 0 558.59 623.57
  Z
  M 698.87 658.50
  L 698.90 646.09
  A 0.41 0.40 -7.2 0 0 698.39 645.70
  Q 691.10 647.65 683.86 649.60
  C 673.32 652.44 669.22 648.92 669.25 637.98
  Q 669.28 621.65 669.21 605.32
  Q 669.20 601.29 665.81 599.28
  C 659.89 595.78 652.94 600.94 650.50 606.13
  Q 649.26 608.76 649.26 614.09
  Q 649.23 663.80 649.26 713.58
  Q 649.26 714.12 649.78 713.98
  L 672.54 707.86
  Q 672.98 707.74 672.98 707.29
  C 673.03 698.64 671.71 686.56 674.24 678.78
  C 678.10 666.95 686.58 662.44 698.02 659.60
  A 1.14 1.13 82.8 0 0 698.87 658.50
  Z
  M 797.00 632.76
  C 804.91 630.61 812.58 633.05 815.59 641.21
  Q 815.73 641.59 816.12 641.48
  L 838.87 635.22
  A 0.87 0.85 -8.2 0 0 839.50 634.40
  L 839.50 608.51
  Q 839.50 607.85 838.86 608.02
  Q 788.44 621.65 738.00 635.26
  Q 734.65 636.17 731.62 636.28
  C 729.21 636.36 726.96 637.96 724.65 638.58
  Q 713.80 641.51 702.94 644.46
  Q 702.50 644.58 702.50 645.03
  L 702.50 657.74
  Q 702.50 658.32 703.06 658.17
  Q 750.05 645.49 797.00 632.76
  Z
  M 563.88 1180.31
  C 572.80 1184.88 581.12 1184.21 591.52 1181.47
  Q 621.27 1173.62 650.97 1165.53
  Q 660.22 1163.01 665.50 1160.22
  C 689.37 1147.63 700.97 1124.23 698.84 1097.47
  Q 698.80 1096.96 698.31 1097.14
  Q 694.09 1098.69 691.43 1099.41
  Q 661.01 1107.65 630.60 1115.96
  Q 625.08 1117.47 621.02 1118.05
  C 597.28 1121.39 581.29 1105.46 581.29 1082.50
  Q 581.25 846.65 581.24 610.77
  Q 581.24 610.12 580.66 610.42
  Q 567.61 617.21 558.77 628.99
  A 2.76 2.73 63.7 0 0 558.22 630.64
  Q 558.26 869.38 558.57 1107.90
  C 558.59 1119.42 556.23 1127.78 547.52 1134.87
  A 2.00 1.98 71.3 0 0 546.78 1136.38
  C 546.41 1153.87 545.70 1171.00 563.88 1180.31
  Z
  M 907.51 753.44
  C 907.52 759.48 911.97 763.70 918.07 761.29
  C 925.63 758.30 927.48 753.06 927.49 744.95
  Q 927.53 691.27 927.48 637.58
  C 927.47 623.07 913.12 626.60 908.82 635.59
  Q 907.51 638.32 907.51 643.29
  Q 907.48 698.36 907.51 753.44
  Z
  M 465.31 641.86
  C 465.06 654.22 468.63 668.09 456.06 676.11
  Q 455.61 676.40 455.62 676.93
  Q 455.85 768.47 455.72 860.05
  Q 455.71 862.96 456.73 865.68
  Q 473.37 909.97 490.18 954.07
  A 0.21 0.21 0.0 0 0 490.58 954.00
  L 490.29 632.28
  Q 490.29 631.63 489.66 631.79
  C 483.17 633.42 471.40 635.47 465.73 640.90
  Q 465.32 641.29 465.31 641.86
  Z
  M 805.29 729.96
  C 813.26 731.97 816.16 736.99 816.50 745.16
  Q 817.11 759.78 816.51 774.42
  C 816.13 783.72 812.46 790.50 805.20 796.06
  A 1.15 1.13 71.7 0 0 804.75 796.97
  L 804.75 857.76
  Q 804.75 858.40 805.37 858.54
  C 815.40 860.92 816.75 868.72 816.76 877.75
  Q 816.78 889.97 816.63 902.18
  Q 816.45 916.30 805.23 924.61
  Q 804.82 924.91 804.81 925.42
  C 804.56 936.30 804.98 949.64 804.98 958.03
  Q 805.01 1024.25 805.00 1090.48
  C 805.00 1102.36 811.63 1105.13 822.41 1102.29
  Q 836.36 1098.62 850.25 1094.76
  C 864.40 1090.83 869.25 1083.32 869.26 1068.85
  Q 869.26 1051.96 869.24 1035.03
  Q 869.24 1034.48 868.72 1034.63
  C 860.09 1037.05 845.71 1043.19 840.74 1031.09
  Q 839.50 1028.08 839.50 1020.62
  Q 839.50 829.99 839.50 639.36
  Q 839.50 638.77 838.93 638.93
  L 817.75 644.76
  A 1.71 1.70 82.5 0 0 816.49 646.41
  Q 816.52 660.32 816.49 674.62
  C 816.46 684.90 813.34 692.24 805.12 698.29
  A 0.91 0.90 72.0 0 0 804.75 699.02
  L 804.75 729.26
  Q 804.75 729.82 805.29 729.96
  Z
  M 429.09 734.57
  C 425.75 742.74 420.25 744.73 412.44 747.26
  Q 411.92 747.43 412.11 747.95
  L 451.73 852.67
  A 0.24 0.24 0.0 0 0 452.19 852.59
  L 452.00 678.20
  Q 452.00 677.62 451.45 677.77
  L 430.95 683.34
  Q 430.49 683.47 430.49 683.95
  Q 430.54 704.54 430.46 725.10
  Q 430.43 731.27 429.09 734.57
  Z
  M 781.91 733.27
  Q 781.93 734.56 783.17 734.23
  L 800.76 729.59
  Q 801.25 729.46 801.25 728.95
  L 801.25 701.38
  Q 801.25 700.87 800.75 701.00
  L 780.90 706.48
  Q 780.42 706.61 780.59 707.08
  C 783.05 713.72 781.78 725.13 781.91 733.27
  Z
  M 741.45 745.52
  L 777.75 735.72
  Q 778.22 735.59 778.22 735.11
  Q 778.38 723.58 778.01 712.07
  Q 777.94 710.01 777.31 708.26
  A 0.89 0.88 72.3 0 0 776.25 707.71
  L 741.52 717.07
  Q 741.00 717.21 741.00 717.75
  L 741.00 745.18
  A 0.36 0.35 -7.6 0 0 741.45 745.52
  Z
  M 649.87 728.45
  C 651.61 727.93 653.62 726.79 655.05 726.40
  Q 663.70 724.06 672.44 721.71
  Q 673.00 721.56 673.00 720.98
  L 673.00 711.96
  A 0.42 0.42 0.0 0 0 672.47 711.55
  L 649.67 717.77
  A 0.57 0.56 82.8 0 0 649.25 718.32
  L 649.25 727.99
  Q 649.25 728.63 649.87 728.45
  Z
  M 725.47 965.69
  C 729.91 964.51 734.45 966.25 736.29 970.13
  Q 737.27 972.22 737.25 978.04
  Q 737.21 988.60 737.27 999.24
  Q 737.27 999.78 737.80 999.64
  C 757.36 994.24 778.05 993.18 778.32 967.67
  Q 778.48 952.74 777.99 937.82
  Q 777.93 936.01 777.26 934.44
  A 0.73 0.73 0.0 0 0 776.39 934.02
  Q 736.05 944.92 696.47 955.59
  Q 688.72 957.68 685.39 957.32
  C 676.45 956.36 673.06 949.01 673.05 940.75
  Q 673.00 833.28 672.99 726.05
  Q 672.99 725.25 672.22 725.46
  C 665.12 727.40 655.95 728.87 649.60 732.90
  Q 649.25 733.13 649.25 733.54
  L 649.25 1020.63
  Q 649.25 1023.41 651.94 1022.70
  L 668.69 1018.32
  A 0.72 0.72 0.0 0 0 669.23 1017.62
  Q 669.28 1008.06 669.27 998.49
  C 669.26 987.32 671.75 980.22 683.17 977.11
  Q 704.30 971.34 725.47 965.69
  Z
  M 137.46 830.78
  C 131.21 832.42 126.23 827.90 126.24 821.99
  Q 126.29 803.78 126.21 785.56
  Q 126.19 781.60 122.85 779.74
  C 116.75 776.34 109.85 781.42 107.43 786.80
  Q 106.26 789.42 106.26 794.91
  Q 106.22 844.46 106.27 894.10
  Q 106.27 894.62 106.77 894.49
  L 144.76 884.20
  A 1.00 0.99 88.1 0 0 145.48 883.43
  Q 148.10 869.91 155.70 858.48
  Q 156.00 858.04 156.00 857.50
  L 156.00 826.74
  Q 156.00 826.15 155.43 826.29
  Q 146.35 828.45 137.46 830.78
  Z
  M 296.05 1355.25
  C 296.06 1364.74 303.93 1371.14 313.26 1369.03
  Q 321.13 1367.24 337.58 1362.51
  C 348.26 1359.43 355.73 1354.15 359.03 1343.53
  Q 360.41 1339.08 360.33 1329.38
  Q 360.23 1315.60 360.25 1301.77
  Q 360.25 1301.22 359.72 1301.38
  C 354.83 1302.77 349.24 1304.69 344.47 1304.14
  C 333.73 1302.91 330.65 1294.92 330.76 1285.19
  C 330.89 1273.53 330.51 1260.29 330.51 1250.26
  Q 330.49 1020.13 330.50 789.97
  Q 330.50 789.33 329.88 789.50
  C 323.01 791.31 314.55 792.92 309.01 796.34
  Q 297.21 803.65 295.77 818.76
  Q 295.64 820.08 297.10 821.64
  Q 306.95 832.20 307.03 847.75
  Q 307.55 945.38 307.01 1043.01
  C 306.93 1057.29 304.11 1068.42 296.46 1079.85
  A 2.73 2.70 62.4 0 0 295.99 1081.38
  Q 296.00 1218.35 296.05 1355.25
  Z
  M 4.99 1341.22
  C 9.82 1358.76 27.13 1367.44 44.34 1363.13
  Q 60.10 1359.18 108.95 1345.68
  Q 118.57 1343.02 123.63 1340.23
  C 140.40 1330.99 152.31 1314.40 155.46 1295.58
  C 156.35 1290.26 155.98 1283.92 156.01 1278.20
  Q 156.01 1277.70 155.53 1277.83
  Q 119.23 1287.99 82.76 1297.55
  C 64.14 1302.43 45.38 1294.56 39.96 1275.34
  Q 38.50 1270.16 38.48 1258.99
  Q 38.07 1025.12 38.30 791.26
  A 0.37 0.37 0.0 0 0 37.76 790.93
  C 21.34 799.33 8.58 815.22 4.71 833.34
  Q 3.42 839.39 3.44 853.25
  Q 3.84 1089.90 3.75 1326.54
  Q 3.75 1336.73 4.99 1341.22
  Z
  M 760.02 868.54
  Q 750.84 871.14 741.63 873.68
  Q 741.50 873.72 741.50 873.75
  Q 741.50 873.88 741.50 874.02
  A 0.13 0.13 0.0 0 0 741.67 874.15
  L 801.00 858.08
  Q 801.25 858.01 801.25 857.75
  L 801.25 799.02
  Q 801.25 798.58 800.82 798.69
  L 781.21 804.11
  Q 780.63 804.27 780.77 804.85
  C 781.23 806.74 781.74 808.37 781.74 810.30
  Q 781.76 825.41 781.74 840.52
  C 781.73 854.57 773.61 864.69 760.02 868.54
  Z
  M 741.59 869.96
  C 760.77 864.84 778.23 863.08 778.25 838.12
  Q 778.27 823.72 778.22 809.31
  Q 778.22 808.27 777.15 805.78
  Q 776.92 805.24 776.36 805.40
  L 741.53 814.80
  Q 741.00 814.94 741.00 815.49
  L 741.00 869.50
  A 0.47 0.47 0.0 0 0 741.59 869.96
  Z
  M 908.20 888.51
  C 937.82 878.37 957.41 849.61 957.38 818.57
  Q 957.38 817.88 956.78 818.21
  Q 949.02 822.36 942.43 824.14
  Q 925.19 828.80 907.93 833.46
  Q 907.50 833.57 907.50 834.01
  L 907.50 888.00
  A 0.54 0.53 80.7 0 0 908.20 888.51
  Z
  M 106.45 967.94
  Q 106.60 1093.27 106.47 1146.31
  Q 106.47 1146.54 106.53 1146.69
  Q 106.75 1147.27 106.75 1146.60
  Q 106.75 1053.09 106.76 959.58
  C 106.76 934.40 122.63 912.35 144.18 900.43
  Q 144.59 900.20 144.59 899.74
  L 144.80 888.59
  Q 144.82 887.92 144.17 888.10
  L 106.77 898.20
  Q 106.33 898.32 106.32 898.78
  C 106.10 921.86 106.42 944.89 106.45 967.94
  Z
  M 212.76 1037.36
  C 212.76 1045.37 218.70 1050.78 226.71 1047.65
  C 235.90 1044.06 239.00 1037.54 239.00 1027.91
  Q 239.01 964.91 238.99 901.90
  C 238.99 893.57 233.51 888.47 225.06 891.40
  C 210.07 896.60 212.73 911.18 212.74 924.82
  Q 212.75 981.10 212.76 1037.36
  Z
  M 110.29 1158.43
  C 110.32 1169.93 115.51 1181.93 125.85 1188.20
  A 0.43 0.42 15.7 0 0 126.50 1187.84
  C 126.50 1171.63 124.18 1161.88 142.83 1156.86
  Q 161.20 1151.90 179.57 1146.95
  C 188.12 1144.64 194.25 1146.30 194.24 1156.47
  Q 194.23 1168.43 194.26 1180.48
  Q 194.26 1181.03 194.80 1180.89
  C 214.25 1175.72 233.62 1172.64 248.64 1157.91
  Q 270.59 1136.37 268.72 1105.28
  Q 268.69 1104.75 268.20 1104.96
  C 265.17 1106.30 262.19 1107.46 258.92 1108.36
  Q 225.65 1117.46 192.32 1126.35
  C 171.39 1131.93 151.64 1122.33 146.05 1101.23
  Q 144.77 1096.39 144.77 1086.03
  Q 144.74 996.74 144.74 905.92
  Q 144.74 904.34 143.37 905.12
  C 127.88 913.89 115.40 930.25 111.44 947.86
  Q 110.01 954.22 110.00 967.74
  Q 109.98 1063.10 110.29 1158.43
  Z
  M 451.31 1207.01
  C 454.57 1215.56 463.50 1215.27 470.95 1213.30
  Q 483.37 1210.02 495.74 1206.66
  Q 503.78 1204.47 507.60 1201.99
  Q 519.76 1194.09 520.30 1177.99
  Q 520.53 1171.09 520.00 1145.42
  Q 519.99 1144.89 519.47 1145.04
  C 505.09 1149.20 491.43 1155.36 484.49 1137.04
  Q 441.76 1024.24 399.03 911.38
  A 0.27 0.27 0.0 0 0 398.50 911.48
  Q 398.49 988.12 398.51 1064.92
  C 398.51 1067.97 399.23 1069.94 400.29 1072.74
  Q 425.69 1139.92 451.31 1207.01
  Z
  M 649.35 1026.93
  C 647.88 1047.83 670.85 1039.06 669.17 1022.32
  Q 669.11 1021.73 668.54 1021.92
  Q 659.37 1024.95 649.84 1026.40
  Q 649.38 1026.47 649.35 1026.93
  Z
  M 106.39 1211.87
  C 106.51 1223.45 120.10 1219.75 124.02 1213.56
  C 127.24 1208.48 126.70 1199.55 126.42 1193.19
  A 1.05 1.03 14.3 0 0 125.90 1192.33
  Q 108.74 1182.31 106.87 1162.21
  Q 106.84 1161.80 106.49 1162.03
  Q 106.31 1162.15 106.30 1162.50
  Q 106.11 1187.19 106.39 1211.87
  Z"
/>
<path fill="#ffffff" d="
  M 64.26 266.59
  C 69.33 250.52 91.94 247.76 99.76 263.65
  Q 181.39 429.51 262.71 595.52
  Q 262.80 595.71 262.74 595.82
  Q 262.62 596.02 262.49 595.82
  Q 166.79 443.05 71.06 290.31
  C 65.42 281.31 61.35 275.81 64.26 266.59
  Z"
/>
<path fill="#ffffff" d="
  M 247.69 334.83
  C 249.88 314.56 279.20 311.29 285.39 331.10
  Q 286.06 333.23 286.94 342.11
  Q 298.70 460.41 310.38 577.79
  Q 310.68 580.81 309.91 577.88
  Q 279.54 462.12 248.97 345.07
  Q 247.29 338.61 247.69 334.83
  Z"
/>
<path fill="#ffffff" d="
  M 25.67 473.59
  C 6.01 460.20 22.51 430.69 43.00 439.08
  Q 46.72 440.60 52.18 445.57
  Q 151.22 535.78 250.20 625.97
  A 0.14 0.13 51.2 0 1 250.18 626.19
  Q 249.80 626.38 249.55 626.14
  Q 249.39 625.99 249.33 625.95
  Q 137.51 549.76 25.67 473.59
  Z"
/>
<path fill="#ffffff" d="
  M 256.91 676.60
  Q 137.68 654.73 18.68 632.86
  C -5.26 628.46 -1.66 594.47 20.34 594.19
  Q 24.52 594.14 35.20 597.90
  Q 146.99 637.26 257.06 676.02
  Q 260.65 677.29 256.91 676.60
  Z"
/>
<circle fill="#ffffff" cx="1172.72" cy="931.75" r="29.87"/>
</svg>
