<?xml version="1.0" encoding="UTF-8" standalone="no"?>
<!DOCTYPE svg PUBLIC "-//W3C//DTD SVG 1.1//EN" "http://www.w3.org/Graphics/SVG/1.1/DTD/svg11.dtd">
<svg xmlns="http://www.w3.org/2000/svg" version="1.1" viewBox="0.00 0.00 1115.00 1087.00">
<path fill="#ffffff" d="
  M 0.00 1053.19
  L 0.00 664.67
  Q 4.24 636.37 29.71 623.13
  Q 30.20 622.87 30.22 622.33
  C 30.36 618.50 30.05 614.18 30.48 610.85
  C 32.49 595.39 41.93 581.38 55.37 573.54
  Q 60.15 570.76 69.58 568.13
  Q 90.82 562.20 112.15 556.59
  Q 123.82 553.51 128.55 553.67
  C 139.25 554.03 149.11 561.48 152.20 571.85
  Q 153.45 576.04 153.47 585.38
  Q 153.54 609.48 153.49 633.57
  C 153.48 640.98 150.80 646.75 143.42 648.67
  Q 135.06 650.83 126.71 653.17
  Q 126.26 653.29 126.26 653.76
  L 126.23 674.77
  Q 126.23 675.71 126.82 674.98
  Q 137.59 661.75 152.05 657.81
  Q 176.00 651.28 199.97 644.90
  C 212.24 641.63 220.54 640.70 230.70 647.01
  Q 231.02 647.21 231.08 646.83
  Q 232.71 634.96 242.07 628.67
  C 247.01 625.35 254.48 623.90 260.71 622.26
  Q 261.22 622.12 261.23 621.60
  Q 261.29 611.74 261.26 601.94
  C 261.22 589.62 263.33 580.92 274.50 575.25
  C 276.95 574.01 280.32 573.35 283.27 572.45
  Q 283.79 572.29 283.80 571.75
  C 284.20 557.61 283.79 540.36 283.78 529.44
  Q 283.72 369.96 283.76 210.47
  C 283.76 200.59 286.67 194.09 296.76 191.52
  Q 300.26 190.63 313.47 186.98
  Q 313.97 186.84 313.97 186.32
  Q 314.06 172.71 314.00 159.15
  C 313.96 149.94 315.33 142.97 324.57 140.34
  Q 337.49 136.66 379.33 125.55
  Q 393.07 121.90 398.92 121.92
  C 416.69 121.99 431.29 132.64 435.81 149.89
  Q 437.24 155.30 437.24 169.75
  Q 437.23 204.27 437.26 238.81
  Q 437.26 239.32 437.75 239.18
  L 453.30 234.93
  A 1.39 1.37 82.1 0 0 454.31 233.58
  Q 454.17 223.79 454.04 214.09
  Q 453.91 204.34 455.36 200.11
  Q 458.92 189.72 470.57 186.57
  Q 510.39 175.79 550.24 165.08
  C 557.22 163.21 562.66 163.36 566.37 169.78
  Q 566.64 170.25 567.01 169.84
  C 572.78 163.47 584.17 162.27 592.16 159.91
  A 0.72 0.70 -8.2 0 0 592.68 159.23
  Q 592.82 145.30 592.74 131.55
  C 592.67 119.72 596.98 115.05 607.99 112.04
  Q 639.12 103.53 670.31 95.21
  C 684.17 91.51 693.46 90.41 704.71 98.23
  Q 705.16 98.54 705.27 98.01
  C 708.77 82.32 718.91 77.42 733.48 73.92
  A 0.67 0.66 83.5 0 0 733.99 73.27
  Q 734.02 62.87 734.00 52.52
  C 733.96 35.52 741.84 27.60 757.56 23.33
  Q 796.04 12.88 834.54 2.53
  C 848.45 -1.21 857.28 2.07 857.26 17.99
  Q 857.23 45.56 857.26 73.14
  C 857.27 90.05 844.30 90.42 831.81 93.78
  Q 831.25 93.93 831.25 94.51
  L 831.25 107.99
  Q 831.25 108.54 831.78 108.40
  Q 838.23 106.64 844.67 104.94
  C 852.17 102.95 857.25 105.00 857.24 113.27
  Q 857.21 125.40 857.27 137.52
  Q 857.28 138.17 857.67 137.65
  Q 865.21 127.78 876.16 121.88
  A 0.99 0.98 77.5 0 0 876.67 121.07
  C 876.88 117.12 876.51 112.85 877.15 109.28
  C 880.12 92.91 890.58 78.04 905.46 70.29
  Q 910.12 67.86 921.06 64.86
  Q 956.95 55.02 967.99 52.22
  C 983.37 48.31 999.17 55.22 1003.68 71.08
  Q 1004.92 75.43 1004.95 87.04
  Q 1005.14 154.89 1005.30 222.75
  C 1005.31 226.53 1004.89 232.75 1004.99 237.77
  C 1005.38 255.43 992.78 272.50 978.34 281.45
  Q 977.85 281.76 977.83 282.34
  L 977.53 294.79
  Q 977.51 295.36 978.06 295.21
  Q 1035.08 279.78 1092.09 264.40
  Q 1099.43 262.43 1103.03 262.96
  C 1111.25 264.18 1114.01 270.71 1114.00 278.50
  C 1113.99 285.71 1115.05 295.36 1112.77 301.88
  C 1107.90 315.82 1097.81 317.35 1085.11 321.14
  Q 1084.60 321.29 1084.81 321.78
  Q 1086.69 326.14 1086.70 329.81
  C 1086.72 336.76 1087.36 345.50 1086.22 351.39
  C 1083.91 363.29 1075.98 370.15 1064.65 373.21
  Q 969.07 399.01 873.50 424.88
  Q 873.00 425.02 873.00 425.53
  Q 872.99 610.82 873.00 796.03
  C 873.00 812.34 857.78 813.00 846.06 816.17
  A 0.51 0.50 82.6 0 0 845.69 816.66
  Q 845.77 830.66 845.74 844.04
  C 845.71 856.61 843.69 863.30 831.34 866.68
  Q 818.42 870.23 805.47 873.71
  Q 798.85 875.49 795.88 874.79
  C 790.00 873.40 789.00 868.23 789.00 862.51
  Q 789.00 655.37 789.00 448.19
  A 0.38 0.38 0.0 0 0 788.52 447.82
  L 782.47 449.46
  Q 781.76 449.65 782.13 450.28
  Q 786.97 458.58 786.98 465.31
  Q 787.03 532.39 786.99 599.47
  C 786.97 618.04 774.89 635.67 760.09 645.77
  Q 759.68 646.05 759.70 646.55
  C 760.80 673.83 743.44 697.71 717.95 706.61
  A 0.68 0.67 -9.9 0 0 717.50 707.24
  Q 717.50 746.25 717.50 785.42
  C 717.50 795.79 719.07 804.38 710.32 811.18
  C 705.57 814.87 696.99 816.40 690.59 818.05
  Q 690.19 818.15 690.19 818.56
  Q 690.26 830.84 690.25 842.52
  Q 690.25 852.67 688.68 856.68
  C 685.66 864.42 680.05 867.49 671.71 869.75
  Q 661.97 872.38 652.24 875.05
  C 642.10 877.83 633.51 875.92 633.51 862.99
  Q 633.51 798.78 633.50 734.55
  Q 633.50 734.12 633.09 734.24
  L 617.68 738.51
  Q 617.15 738.65 617.31 739.18
  C 619.44 746.43 618.24 757.08 618.26 764.79
  C 618.33 788.02 602.18 789.16 583.56 794.25
  Q 583.05 794.39 583.05 794.91
  Q 582.90 807.19 583.02 819.42
  C 583.22 840.11 574.20 856.50 555.94 866.74
  A 0.93 0.93 0.0 0 0 555.47 867.58
  Q 555.53 870.00 555.59 875.76
  C 555.75 893.92 544.75 911.10 529.15 920.05
  Q 524.24 922.87 513.89 925.73
  Q 479.68 935.16 465.08 938.88
  C 449.25 942.91 433.81 934.28 430.27 918.14
  C 429.19 913.22 429.45 907.07 429.51 901.54
  Q 429.52 901.14 429.12 901.25
  L 414.67 905.42
  A 0.71 0.70 81.4 0 0 414.17 906.11
  Q 414.40 918.93 414.15 931.71
  C 413.95 942.34 409.57 951.00 399.73 955.55
  Q 397.44 956.60 386.98 959.44
  C 377.06 962.13 359.24 970.16 353.78 955.74
  Q 334.66 905.22 315.37 854.29
  Q 315.25 853.99 315.25 854.31
  Q 315.24 926.33 315.26 998.57
  Q 315.26 1007.65 313.81 1011.75
  C 309.48 1023.99 299.85 1025.83 288.27 1029.03
  Q 287.76 1029.17 287.76 1029.71
  Q 287.73 1041.98 287.76 1054.17
  C 287.78 1064.09 285.04 1071.76 276.88 1077.22
  Q 273.10 1079.75 263.49 1082.34
  C 249.53 1086.11 231.24 1092.78 231.24 1069.59
  C 231.25 999.73 230.74 929.83 231.19 859.98
  Q 231.19 859.28 230.75 859.83
  Q 224.44 867.61 215.83 872.73
  Q 215.37 873.00 215.36 873.53
  C 215.20 879.31 215.65 884.92 214.32 890.72
  C 210.31 908.20 198.14 922.31 182.24 929.44
  C 174.64 932.85 163.42 935.03 154.24 937.68
  Q 153.76 937.82 153.76 938.32
  Q 153.73 951.67 153.76 964.99
  C 153.81 983.99 142.85 1000.49 126.59 1009.58
  Q 126.13 1009.84 126.15 1010.37
  Q 126.60 1021.90 125.75 1026.25
  C 121.93 1045.91 107.33 1062.70 87.73 1067.85
  Q 65.22 1073.76 42.74 1079.80
  Q 32.79 1082.47 27.58 1082.41
  Q 9.07 1082.21 1.84 1064.20
  C 0.53 1060.94 0.39 1056.77 0.00 1053.19
  Z
  M 803.49 75.31
  C 803.46 61.26 787.75 68.65 787.74 78.51
  Q 787.71 94.94 787.78 111.37
  C 787.80 117.93 791.03 119.34 797.11 117.72
  Q 812.36 113.66 827.68 109.49
  Q 828.25 109.33 828.25 108.74
  L 828.25 95.30
  Q 828.25 94.73 827.70 94.88
  C 820.75 96.76 803.51 104.37 803.51 89.98
  Q 803.51 82.66 803.49 75.31
  Z
  M 787.14 269.94
  C 787.19 279.58 799.03 275.68 801.94 270.46
  Q 803.36 267.93 803.42 262.61
  Q 803.91 221.11 803.51 179.62
  C 803.45 172.63 799.89 171.85 793.78 173.50
  Q 770.25 179.84 746.72 186.19
  C 737.22 188.75 733.99 184.72 734.00 175.38
  Q 734.01 126.35 733.99 77.29
  Q 733.99 76.77 733.49 76.89
  C 719.85 79.99 709.79 85.38 707.89 100.57
  A 1.19 1.14 -62.6 0 0 708.15 101.46
  Q 715.97 110.85 715.98 123.25
  Q 716.02 180.58 716.00 237.68
  A 0.59 0.58 -7.2 0 0 716.74 238.25
  L 732.76 233.95
  Q 733.23 233.83 733.24 233.33
  C 733.31 225.18 732.18 217.96 739.67 212.76
  Q 741.95 211.18 747.68 209.62
  Q 760.71 206.07 773.74 202.57
  C 783.20 200.02 787.00 203.02 787.00 212.97
  Q 786.99 241.44 787.14 269.94
  Z
  M 951.23 123.64
  C 951.22 105.93 929.91 115.95 930.46 127.00
  C 930.67 131.36 930.23 136.24 930.26 140.00
  Q 930.67 184.40 930.46 228.82
  C 930.39 243.73 945.54 239.99 949.90 230.67
  Q 951.24 227.80 951.25 222.10
  Q 951.27 172.87 951.23 123.64
  Z
  M 914.46 300.35
  C 898.17 304.66 882.81 297.72 878.20 282.03
  Q 876.74 277.08 876.75 266.27
  Q 876.76 195.92 876.73 125.57
  A 0.45 0.45 0.0 0 0 876.06 125.18
  C 870.08 128.64 857.33 138.34 857.30 146.00
  Q 857.08 217.28 857.45 288.56
  C 857.51 299.00 856.43 305.56 849.41 312.50
  A 0.72 0.71 67.4 0 0 849.19 313.04
  L 849.40 329.17
  A 0.61 0.61 0.0 0 0 850.17 329.75
  L 973.85 296.34
  A 1.03 1.02 82.9 0 0 974.61 295.36
  L 974.81 284.03
  Q 974.82 283.35 974.19 283.61
  Q 969.58 285.57 967.43 286.15
  Q 940.97 293.34 914.46 300.35
  Z
  M 646.51 255.02
  C 646.52 265.25 658.15 261.66 661.02 255.68
  Q 662.24 253.12 662.25 247.12
  Q 662.26 203.69 662.24 160.25
  C 662.24 156.44 659.41 153.79 655.52 154.32
  C 644.32 155.87 646.50 168.19 646.50 176.49
  Q 646.49 215.76 646.51 255.02
  Z
  M 565.57 412.41
  Q 579.60 417.95 582.32 432.88
  A 0.57 0.57 0.0 0 0 583.03 433.32
  L 592.50 430.75
  A 1.02 1.02 0.0 0 0 593.26 429.76
  C 593.23 423.64 592.61 416.40 594.40 410.96
  C 597.90 400.33 605.34 395.89 615.78 393.11
  A 0.63 0.62 82.9 0 0 616.25 392.50
  L 616.25 381.25
  Q 616.25 380.68 615.70 380.83
  C 606.94 383.26 592.75 389.48 592.75 373.62
  Q 592.75 269.33 592.74 163.99
  Q 592.74 162.78 591.58 163.10
  C 584.25 165.08 572.46 166.35 567.92 173.45
  Q 567.67 173.85 567.68 174.32
  Q 568.01 188.36 567.41 202.40
  C 567.27 205.67 565.24 207.96 565.24 211.54
  Q 565.26 228.03 565.25 244.54
  A 1.93 1.88 30.8 0 0 565.50 245.48
  Q 567.77 249.41 567.77 254.00
  Q 567.79 265.97 567.71 277.94
  C 567.69 281.51 565.24 285.15 565.24 289.26
  Q 565.26 317.69 565.24 346.14
  Q 565.24 346.65 565.50 347.09
  Q 567.74 350.90 567.74 354.50
  Q 567.77 367.34 567.72 380.19
  C 567.71 383.43 565.26 387.11 565.25 391.14
  Q 565.24 401.65 565.25 411.95
  A 0.51 0.50 -80.5 0 0 565.57 412.41
  Z
  M 367.85 320.19
  C 367.87 329.90 378.96 326.46 382.10 321.05
  Q 383.46 318.70 383.51 313.67
  Q 384.06 251.33 383.43 188.97
  C 383.29 174.59 367.96 181.95 367.93 192.50
  Q 367.73 256.35 367.85 320.19
  Z
  M 304.53 566.77
  C 317.97 563.28 321.27 579.98 324.38 588.51
  Q 324.55 588.98 325.04 588.92
  C 335.57 587.65 337.76 580.34 337.78 570.98
  Q 337.80 559.96 337.45 542.71
  Q 337.44 542.15 336.91 542.29
  C 326.80 544.88 314.00 552.12 314.00 534.01
  Q 314.01 362.30 314.00 190.56
  Q 314.00 190.06 313.52 190.17
  Q 297.85 193.63 293.56 195.55
  C 288.59 197.76 286.75 203.00 286.75 208.58
  Q 286.74 389.76 286.75 570.96
  Q 286.75 571.50 287.28 571.36
  Q 295.96 568.99 304.53 566.77
  Z
  M 561.94 213.44
  C 556.13 219.48 547.42 220.66 539.67 222.72
  Q 539.15 222.86 539.29 223.38
  C 541.09 229.88 540.17 237.61 540.29 244.40
  Q 540.30 244.98 540.86 244.83
  C 547.29 243.15 555.58 239.44 562.02 242.55
  Q 562.51 242.79 562.51 242.24
  L 562.47 213.16
  Q 562.47 212.69 562.13 213.01
  Q 561.92 213.19 561.94 213.44
  Z
  M 507.73 231.85
  L 507.79 253.15
  A 0.51 0.51 0.0 0 0 508.43 253.64
  L 536.85 245.95
  Q 537.28 245.83 537.28 245.39
  L 537.19 225.58
  Q 537.19 223.40 535.08 223.97
  L 508.21 231.23
  A 0.65 0.64 -7.7 0 0 507.73 231.85
  Z
  M 716.00 261.75
  A 0.33 0.33 0.0 0 0 716.42 262.07
  L 733.01 257.65
  A 0.33 0.33 0.0 0 0 733.25 257.33
  L 733.25 237.19
  A 0.33 0.33 0.0 0 0 732.83 236.87
  L 716.24 241.34
  A 0.33 0.33 0.0 0 0 716.00 241.66
  L 716.00 261.75
  Z
  M 427.23 442.95
  C 432.41 443.26 435.97 443.62 439.08 447.95
  C 442.73 453.04 441.73 465.19 441.33 471.45
  Q 441.30 471.95 441.78 471.82
  L 459.29 467.10
  Q 459.80 466.96 459.90 466.43
  C 463.51 447.32 477.09 431.30 496.08 426.11
  Q 516.46 420.54 536.95 415.05
  A 0.85 0.84 -9.1 0 0 537.57 414.20
  L 537.03 403.82
  Q 536.96 402.48 535.67 402.83
  Q 505.21 411.06 474.29 419.44
  C 466.69 421.50 459.49 423.16 455.63 415.39
  Q 454.26 412.65 454.24 407.36
  Q 453.82 324.04 454.06 238.23
  A 0.42 0.42 0.0 0 0 453.53 237.83
  L 439.04 241.79
  Q 437.49 242.21 437.49 243.83
  Q 437.52 272.79 437.48 302.45
  C 437.46 319.70 435.79 332.06 427.47 345.90
  Q 426.96 346.75 426.95 347.75
  Q 426.75 395.06 426.72 442.41
  Q 426.72 442.92 427.23 442.95
  Z
  M 744.56 342.69
  C 733.97 340.68 733.27 332.33 733.26 322.44
  Q 733.25 291.77 733.25 261.09
  Q 733.25 260.53 732.70 260.68
  L 716.51 265.04
  Q 716.05 265.16 716.04 265.64
  Q 715.92 273.56 716.00 281.50
  C 716.09 290.77 715.38 296.47 707.66 301.20
  Q 707.25 301.45 707.22 301.94
  Q 706.55 311.70 707.23 314.76
  Q 709.92 327.00 712.73 339.22
  C 714.25 345.81 712.68 350.84 707.53 354.99
  Q 707.20 355.25 707.20 355.67
  L 707.20 367.75
  A 0.48 0.48 0.0 0 0 707.81 368.21
  L 827.95 335.77
  A 0.75 0.73 -7.8 0 0 828.50 335.06
  L 828.50 322.02
  A 0.37 0.37 0.0 0 0 828.04 321.66
  Q 792.58 331.27 757.28 340.78
  C 753.07 341.91 748.46 343.43 744.56 342.69
  Z
  M 516.58 352.67
  Q 515.85 352.68 515.64 352.86
  Q 514.45 353.91 515.98 353.47
  Q 534.36 348.26 553.07 343.34
  Q 557.63 342.14 562.06 344.26
  Q 562.50 344.47 562.50 343.98
  L 562.50 290.75
  Q 562.50 290.04 562.01 290.55
  C 555.90 296.93 547.65 297.89 539.72 300.00
  Q 539.18 300.14 539.33 300.68
  C 541.37 307.93 540.25 318.27 540.25 325.90
  C 540.24 336.35 537.47 343.94 528.25 349.00
  C 526.00 350.24 519.33 352.67 516.58 352.67
  Z
  M 507.98 308.89
  L 508.01 351.50
  Q 508.01 351.99 508.49 351.89
  C 524.57 348.30 536.78 345.99 537.37 327.55
  Q 537.75 315.55 537.21 303.07
  Q 537.11 300.71 534.83 301.33
  L 508.29 308.48
  Q 507.98 308.57 507.98 308.89
  Z
  M 831.68 334.75
  L 846.22 330.85
  Q 846.61 330.74 846.60 330.35
  L 846.45 315.74
  Q 846.45 315.19 845.98 315.47
  Q 839.55 319.23 832.15 320.41
  A 1.07 1.06 85.6 0 0 831.25 321.47
  L 831.25 334.42
  A 0.34 0.34 0.0 0 0 831.68 334.75
  Z
  M 675.57 364.68
  C 669.23 366.44 656.54 372.01 654.51 361.31
  Q 650.60 340.78 646.73 320.07
  A 0.14 0.14 0.0 0 0 646.45 320.10
  Q 646.52 337.33 646.51 354.62
  Q 646.51 363.18 644.98 366.66
  C 640.81 376.16 630.06 376.84 621.19 379.46
  Q 620.65 379.62 620.75 380.18
  L 622.65 390.65
  Q 622.75 391.21 623.29 391.06
  L 678.16 376.25
  Q 678.68 376.11 678.56 375.58
  L 676.19 365.04
  Q 676.07 364.54 675.57 364.68
  Z
  M 1056.67 372.38
  C 1068.89 369.07 1078.20 366.96 1082.64 354.31
  C 1084.63 348.62 1084.83 327.96 1082.07 322.68
  A 0.94 0.93 -20.8 0 0 1081.00 322.21
  L 873.32 378.32
  A 0.44 0.44 0.0 0 0 873.00 378.74
  L 873.00 421.25
  A 0.60 0.59 -7.5 0 0 873.75 421.82
  Q 965.33 397.10 1056.67 372.38
  Z
  M 423.48 351.29
  Q 417.65 359.31 410.36 365.39
  A 1.17 1.15 72.3 0 0 409.94 366.22
  C 408.60 393.34 391.74 416.11 368.35 428.47
  Q 368.01 428.65 368.01 429.05
  L 367.99 503.47
  Q 367.99 504.15 368.55 503.77
  C 373.60 500.30 381.36 499.09 387.25 497.41
  A 0.69 0.68 82.2 0 0 387.75 496.75
  Q 387.75 484.92 387.76 473.09
  C 387.76 449.88 406.59 448.76 423.54 443.88
  Q 423.94 443.77 423.94 443.35
  L 423.87 352.05
  A 0.76 0.75 -55.9 0 0 423.82 351.78
  L 423.60 351.30
  A 0.07 0.07 0.0 0 0 423.48 351.29
  Z
  M 512.8034 354.0322
  A 2.32 0.27 -15.7 0 0 510.4969 354.4001
  A 2.32 0.27 -15.7 0 0 508.3366 355.2878
  A 2.32 0.27 -15.7 0 0 510.6431 354.9199
  A 2.32 0.27 -15.7 0 0 512.8034 354.0322
  Z
  M 704.00 369.26
  A 0.34 0.34 0.0 0 0 704.25 368.93
  L 704.25 357.38
  A 0.34 0.34 0.0 0 0 703.82 357.06
  L 679.16 363.71
  A 0.34 0.34 0.0 0 0 678.91 364.12
  L 681.39 374.99
  A 0.34 0.34 0.0 0 0 681.81 375.24
  L 704.00 369.26
  Z
  M 367.89 383.50
  L 368.03 425.02
  A 0.26 0.26 0.0 0 0 368.41 425.25
  C 388.58 414.14 405.65 392.51 406.91 368.60
  Q 406.94 367.90 406.37 368.31
  C 394.27 377.00 381.73 379.44 368.26 383.03
  A 0.48 0.48 0.0 0 0 367.89 383.50
  Z
  M 619.46 387.49
  Q 619.14 389.71 619.05 391.48
  Q 619.04 391.72 619.13 391.85
  Q 619.27 392.06 619.54 392.10
  A 0.38 0.38 0.0 0 0 619.97 391.70
  L 619.68 387.50
  A 0.11 0.11 0.0 0 0 619.46 387.49
  Z
  M 558.67 411.29
  Q 560.31 411.42 562.04 411.44
  Q 562.50 411.44 562.50 410.98
  L 562.50 392.26
  Q 562.50 391.68 562.12 392.12
  C 556.48 398.59 547.46 399.67 539.71 401.70
  Q 539.24 401.82 539.36 402.30
  Q 540.79 407.78 540.14 413.46
  Q 540.06 414.10 540.69 413.96
  C 546.99 412.56 551.53 410.68 558.67 411.29
  Z
  M 790.98 444.19
  Q 791.80 443.96 791.80 444.82
  Q 791.56 654.94 791.99 864.36
  C 792.01 872.01 796.30 873.18 803.05 871.37
  Q 816.57 867.74 830.09 864.09
  C 838.89 861.71 842.66 857.84 842.72 848.24
  Q 842.81 833.03 842.72 817.71
  Q 842.72 817.12 842.15 817.26
  C 832.28 819.68 819.24 826.71 819.24 809.06
  Q 819.28 601.34 819.24 393.52
  Q 819.24 392.98 818.71 393.12
  Q 714.92 421.05 611.19 449.18
  Q 602.67 451.49 596.46 445.39
  Q 596.13 445.06 595.68 445.18
  L 583.49 448.48
  Q 582.95 448.62 582.95 449.19
  Q 583.05 470.72 583.00 492.25
  Q 582.99 497.00 580.30 500.73
  A 0.21 0.20 -79.7 0 0 580.52 501.05
  L 663.23 478.72
  A 0.70 0.70 0.0 0 0 663.75 478.04
  C 663.59 463.00 668.76 458.03 682.68 454.24
  Q 708.09 447.33 733.52 440.54
  Q 749.68 436.22 752.95 435.95
  Q 768.36 434.69 780.02 446.68
  Q 780.41 447.07 780.94 446.93
  L 790.98 444.19
  Z
  M 582.91 445.25
  Q 582.92 445.67 583.32 445.56
  L 594.02 442.67
  A 0.57 0.56 -19.0 0 0 594.40 441.91
  Q 592.88 438.10 593.30 434.00
  A 0.37 0.36 -4.4 0 0 592.84 433.61
  L 583.27 436.22
  A 0.77 0.76 -8.4 0 0 582.71 436.97
  L 582.91 445.25
  Z
  M 441.46 493.27
  Q 441.46 494.10 442.01 493.47
  Q 449.19 485.24 459.04 480.46
  A 0.78 0.76 -13.0 0 0 459.47 479.79
  L 459.57 470.49
  Q 459.57 469.97 459.07 470.10
  L 441.95 474.73
  A 0.59 0.58 -7.9 0 0 441.52 475.29
  L 441.46 493.27
  Z
  M 532.02 558.63
  C 532.35 552.02 531.17 542.80 533.32 536.92
  C 536.61 527.92 543.10 524.70 552.02 522.37
  Q 552.50 522.24 552.50 521.75
  L 552.50 511.99
  Q 552.50 511.38 551.91 511.53
  Q 546.33 512.99 540.78 514.53
  C 533.34 516.59 529.34 514.61 529.15 506.31
  Q 528.88 494.25 529.01 482.17
  C 529.16 469.53 516.72 473.20 514.06 480.74
  Q 513.25 483.03 513.25 489.37
  Q 513.23 527.19 513.26 565.07
  Q 513.26 565.60 513.77 565.46
  L 531.51 560.65
  A 0.80 0.78 -75.9 0 0 531.90 560.41
  Q 532.44 559.79 532.18 559.33
  Q 532.00 559.00 532.02 558.63
  Z
  M 630.41 501.19
  C 636.55 499.54 642.46 501.52 644.78 507.74
  Q 644.96 508.21 645.45 508.08
  L 663.24 503.16
  Q 663.75 503.02 663.75 502.49
  L 663.75 482.06
  Q 663.75 481.52 663.23 481.66
  Q 623.37 492.46 583.51 503.29
  Q 580.80 504.03 578.00 504.02
  C 576.45 504.02 574.75 505.36 573.15 505.78
  Q 564.56 508.05 555.93 510.49
  Q 555.50 510.61 555.50 511.06
  L 555.50 520.97
  Q 555.50 521.42 555.94 521.30
  Q 593.17 511.22 630.41 501.19
  Z
  M 440.19 930.31
  C 449.07 938.43 457.92 937.75 469.86 934.61
  Q 491.48 928.93 513.06 923.02
  Q 522.42 920.45 527.38 917.69
  Q 547.23 906.63 552.31 883.00
  Q 553.07 879.47 552.64 869.03
  Q 552.62 868.59 552.20 868.71
  Q 524.49 876.42 496.70 883.80
  C 481.64 887.79 466.34 883.51 461.35 867.88
  Q 459.83 863.13 459.81 851.93
  Q 459.54 667.98 459.46 484.02
  Q 459.46 483.43 458.94 483.70
  Q 448.69 489.02 441.82 498.30
  A 1.68 1.66 -27.3 0 0 441.50 499.28
  Q 441.51 689.15 441.50 879.02
  C 441.49 887.42 439.01 893.29 432.76 898.53
  Q 432.39 898.84 432.37 899.32
  C 431.82 911.21 431.66 922.52 440.19 930.31
  Z
  M 717.51 596.12
  C 717.52 606.61 728.42 604.15 731.90 597.83
  Q 733.24 595.40 733.24 590.41
  Q 733.26 547.73 733.24 505.06
  C 733.24 493.66 721.75 496.32 718.63 503.22
  Q 717.51 505.71 717.51 511.45
  Q 717.48 553.79 717.51 596.12
  Z
  M 367.99 508.31
  C 368.06 517.85 370.33 529.31 360.73 535.35
  Q 360.25 535.65 360.25 536.23
  L 360.25 681.23
  A 10.70 10.45 35.3 0 0 360.94 684.98
  L 387.36 754.83
  A 0.20 0.20 0.0 0 0 387.75 754.76
  L 387.75 500.99
  Q 387.75 500.42 387.20 500.54
  C 381.24 501.82 373.07 503.43 368.36 507.49
  Q 367.99 507.81 367.99 508.31
  Z
  M 636.38 577.90
  Q 645.71 580.42 645.76 590.02
  Q 645.81 599.56 645.75 609.10
  C 645.69 618.44 644.18 624.65 637.02 630.04
  A 1.62 1.60 71.6 0 0 636.39 631.32
  L 636.54 679.11
  Q 636.54 679.63 637.03 679.78
  Q 645.92 682.51 645.85 692.26
  Q 645.78 701.82 645.76 711.40
  C 645.75 720.59 643.88 726.51 636.88 731.98
  Q 636.48 732.30 636.48 732.82
  Q 636.53 798.08 636.50 863.34
  C 636.49 873.21 642.41 874.66 650.99 872.37
  Q 661.32 869.62 671.63 866.78
  C 678.52 864.88 683.23 862.42 685.87 856.09
  Q 687.32 852.62 687.27 844.27
  Q 687.21 831.91 687.28 819.52
  Q 687.28 818.96 686.75 819.11
  C 672.70 822.92 663.75 825.43 663.75 806.74
  Q 663.76 656.69 663.75 506.62
  Q 663.75 506.00 663.15 506.17
  L 646.29 510.80
  Q 645.77 510.94 645.77 511.47
  Q 645.71 520.99 645.74 530.52
  C 645.76 540.79 644.56 547.09 636.72 553.04
  Q 636.25 553.39 636.25 553.98
  L 636.25 577.73
  A 0.18 0.17 -83.8 0 0 636.38 577.90
  Z
  M 340.47 572.40
  C 340.41 584.00 337.04 588.47 326.25 591.73
  Q 325.69 591.90 325.90 592.44
  L 357.31 675.44
  A 0.10 0.10 0.0 0 0 357.50 675.40
  L 357.50 537.22
  Q 357.50 536.69 356.99 536.83
  L 340.99 541.16
  A 0.70 0.69 82.3 0 0 340.48 541.83
  Q 340.55 557.08 340.47 572.40
  Z
  M 618.44 581.68
  L 633.02 577.81
  Q 633.50 577.68 633.50 577.18
  L 633.50 555.76
  Q 633.50 555.12 632.88 555.29
  L 617.66 559.46
  A 0.52 0.51 -16.0 0 0 617.30 560.10
  C 619.14 566.51 618.25 574.85 618.25 581.53
  A 0.15 0.15 0.0 0 0 618.44 581.68
  Z
  M 615.40 581.62
  Q 615.86 571.85 615.04 562.12
  Q 614.87 560.20 613.01 560.70
  L 586.32 567.93
  Q 585.96 568.03 585.96 568.41
  L 586.02 589.95
  Q 586.02 590.45 586.51 590.32
  L 614.48 582.76
  A 1.26 1.25 -6.1 0 0 615.40 581.62
  Z
  M 532.10 570.90
  L 532.19 564.06
  A 0.49 0.49 0.0 0 0 531.58 563.58
  L 513.88 568.39
  A 0.85 0.84 -7.7 0 0 513.25 569.20
  L 513.25 576.11
  Q 513.25 576.72 513.84 576.55
  L 531.65 571.50
  A 0.63 0.62 82.0 0 0 532.10 570.90
  Z
  M 573.97 764.45
  C 578.67 763.20 583.01 766.80 583.00 771.27
  Q 582.96 780.93 583.02 790.81
  Q 583.02 791.39 583.58 791.25
  C 591.09 789.35 602.54 787.36 608.14 782.85
  C 614.41 777.79 615.52 771.89 615.51 763.46
  Q 615.51 753.30 615.40 742.06
  Q 615.37 739.07 612.48 739.85
  Q 581.26 748.36 548.43 757.12
  C 542.49 758.71 536.70 758.07 533.76 752.48
  Q 532.24 749.59 532.24 742.26
  Q 532.28 658.60 532.24 574.92
  Q 532.24 574.37 531.71 574.51
  C 526.58 575.82 517.90 577.35 513.68 580.37
  A 1.04 1.04 0.0 0 0 513.24 581.22
  L 513.27 809.00
  A 0.85 0.85 0.0 0 0 514.32 809.82
  L 528.72 806.18
  Q 529.22 806.05 529.23 805.53
  Q 529.29 796.85 529.27 788.18
  C 529.25 779.07 533.44 775.41 542.15 773.03
  Q 558.04 768.68 573.97 764.45
  Z
  M 109.48 657.75
  C 104.70 659.03 99.78 656.27 99.76 651.25
  Q 99.73 638.15 99.76 625.03
  C 99.80 612.68 87.80 615.53 84.84 623.26
  Q 84.00 625.46 84.00 630.85
  Q 84.00 669.39 84.00 707.81
  A 0.38 0.38 0.0 0 0 84.47 708.18
  L 114.41 700.09
  Q 114.91 699.96 115.02 699.45
  Q 117.12 688.93 122.97 679.94
  A 1.73 1.71 -28.7 0 0 123.25 679.00
  L 123.25 654.74
  Q 123.25 654.13 122.65 654.28
  Q 116.01 656.00 109.48 657.75
  Z
  M 284.07 1029.98
  C 270.96 1035.44 261.45 1031.58 261.47 1016.52
  Q 261.67 821.04 261.19 625.57
  Q 261.19 625.08 260.71 625.20
  C 254.98 626.73 248.10 628.07 243.57 631.08
  Q 234.57 637.07 233.85 648.83
  Q 233.82 649.34 234.17 649.72
  Q 242.74 658.92 242.74 672.00
  Q 242.77 748.64 242.74 825.28
  C 242.73 837.02 240.39 845.74 234.28 855.12
  A 1.74 1.66 -29.6 0 0 234.00 856.05
  Q 233.99 962.26 234.01 1068.46
  C 234.01 1080.57 238.34 1085.98 251.05 1082.65
  C 258.82 1080.62 269.97 1078.74 275.92 1074.42
  C 283.86 1068.66 285.03 1061.60 285.01 1051.42
  Q 284.99 1040.93 285.00 1030.60
  A 0.67 0.67 0.0 0 0 284.07 1029.98
  Z
  M 4.41 1062.90
  C 8.85 1076.77 22.84 1082.09 36.26 1078.51
  Q 61.99 1071.66 87.67 1064.62
  C 105.58 1059.72 119.31 1044.67 122.72 1026.44
  C 123.56 1021.97 123.16 1016.53 123.39 1011.55
  Q 123.41 1011.06 122.95 1011.19
  C 122.37 1011.34 121.67 1011.84 121.17 1011.98
  Q 93.87 1019.46 66.49 1026.73
  C 44.73 1032.51 30.47 1019.84 30.45 998.25
  Q 30.25 812.40 30.22 626.73
  A 0.40 0.40 0.0 0 0 29.63 626.38
  C 14.23 634.78 2.81 650.71 2.79 668.75
  Q 2.57 858.81 3.07 1048.84
  Q 3.09 1058.80 4.41 1062.90
  Z
  M 616.76 673.85
  C 612.92 683.91 606.11 685.93 596.57 689.00
  Q 596.03 689.18 596.59 689.25
  Q 597.12 689.31 597.83 689.10
  Q 611.76 685.02 633.04 679.57
  Q 633.50 679.45 633.50 678.98
  L 633.50 632.85
  Q 633.50 632.41 633.07 632.53
  L 617.64 636.74
  Q 617.12 636.88 617.29 637.39
  C 619.50 644.17 618.27 655.51 618.23 662.83
  Q 618.19 670.09 616.76 673.85
  Z
  M 586.50 688.64
  C 601.75 685.09 614.93 682.86 615.38 664.48
  Q 615.66 653.20 615.30 639.95
  Q 615.23 637.38 612.76 638.05
  L 586.49 645.15
  Q 586.00 645.29 586.00 645.80
  L 586.00 688.24
  Q 586.00 688.76 586.50 688.64
  Z
  M 718.12 703.46
  C 739.93 696.00 758.60 672.17 756.65 648.47
  Q 756.61 647.89 756.10 648.16
  C 744.86 654.01 730.21 656.67 717.95 659.94
  A 0.61 0.61 0.0 0 0 717.50 660.53
  L 717.50 703.02
  Q 717.50 703.68 718.12 703.46
  Z
  M 587.23 691.90
  L 589.54 691.32
  Q 590.11 691.17 589.53 691.06
  Q 587.99 690.76 587.05 691.57
  Q 586.42 692.11 587.23 691.90
  Z
  M 84.34 755.88
  C 84.89 753.27 85.03 750.48 85.71 748.18
  Q 92.56 724.90 113.90 712.96
  Q 114.40 712.68 114.41 712.12
  L 114.54 703.81
  Q 114.55 703.03 113.80 703.23
  L 84.46 711.16
  Q 83.96 711.30 83.96 711.83
  L 84.10 756.44
  Q 84.10 756.74 84.39 756.65
  Q 84.78 756.52 84.50 756.31
  A 0.45 0.44 25.2 0 1 84.34 755.88
  Z
  M 171.20 828.29
  C 177.01 832.89 185.22 827.23 187.65 821.83
  Q 189.00 818.82 189.00 812.95
  Q 189.00 763.93 189.00 714.92
  C 189.00 700.51 174.28 703.93 169.84 712.79
  Q 168.38 715.72 168.26 721.61
  C 167.61 755.04 168.37 788.55 168.24 822.00
  Q 168.23 825.94 171.20 828.29
  Z
  M 87.16 916.93
  C 87.18 925.96 91.28 935.41 99.35 940.31
  A 0.40 0.40 0.0 0 0 99.96 939.98
  C 100.16 930.07 98.06 919.81 110.43 916.43
  Q 125.97 912.19 141.53 908.00
  C 148.11 906.24 153.53 906.92 153.62 915.02
  Q 153.72 924.57 153.78 934.26
  Q 153.79 934.81 154.31 934.66
  C 163.89 932.01 175.59 929.72 183.50 925.75
  C 202.17 916.36 214.27 896.26 212.37 875.02
  Q 212.33 874.53 211.89 874.74
  Q 208.17 876.46 206.44 876.93
  Q 179.48 884.26 152.47 891.39
  C 136.25 895.66 120.75 889.30 115.93 873.21
  Q 114.51 868.46 114.51 858.62
  Q 114.51 787.60 114.48 716.76
  A 0.51 0.50 74.8 0 0 113.72 716.32
  C 101.34 723.65 91.58 735.94 88.25 750.03
  Q 87.01 755.28 87.01 766.56
  Q 86.97 841.76 87.16 916.93
  Z
  M 315.12 721.98
  Q 314.97 782.74 315.25 842.84
  Q 315.27 845.76 316.30 848.49
  Q 336.01 900.93 355.94 953.29
  C 359.28 962.06 364.84 962.38 373.44 960.08
  Q 384.22 957.20 395.01 954.28
  C 406.12 951.27 411.20 942.20 411.24 931.25
  Q 411.29 919.04 411.23 906.78
  Q 411.23 906.23 410.71 906.39
  C 402.06 908.94 388.46 914.33 383.92 902.32
  Q 349.69 811.80 315.61 721.89
  Q 315.12 720.61 315.12 721.98
  Z
  M 513.55 812.74
  C 512.54 830.14 530.39 821.78 529.20 809.50
  Q 529.15 808.98 528.65 809.11
  C 523.96 810.38 518.92 812.21 514.06 812.25
  Q 513.58 812.26 513.55 812.74
  Z
  M 84.15 960.11
  C 85.66 968.99 95.65 964.60 98.24 960.21
  C 100.47 956.41 99.84 949.94 100.06 945.21
  A 1.78 1.76 -73.5 0 0 99.20 943.60
  Q 86.17 935.83 84.63 920.53
  Q 84.61 920.35 84.51 920.51
  L 84.34 920.79
  Q 84.14 921.12 84.14 921.51
  Q 83.83 938.51 84.08 955.50
  Q 84.14 960.05 84.15 960.11
  Z"
/>
<path fill="#ff3f65" d="
  M 49.98 215.34
  C 51.34 199.23 72.34 195.05 79.67 210.02
  Q 144.14 341.68 208.74 473.14
  A 0.24 0.24 0.0 0 1 208.43 473.47
  Q 207.97 473.26 207.68 472.79
  Q 108.66 314.24 53.90 227.08
  C 51.60 223.41 49.61 219.74 49.98 215.34
  Z"
/>
<path fill="#ff3f65" d="
  M 195.71 265.31
  C 197.69 247.82 224.40 247.12 226.29 265.77
  Q 236.07 362.09 245.33 454.96
  Q 246.06 462.33 244.18 455.17
  Q 221.10 367.13 197.52 276.93
  Q 195.34 268.60 195.71 265.31
  Z"
/>
<path fill="#ff3f65" d="
  M 20.27 375.51
  C 1.66 362.84 22.71 336.30 38.95 351.07
  Q 117.88 422.88 194.70 492.49
  Q 204.08 500.99 193.64 493.83
  Q 109.59 436.26 20.27 375.51
  Z"
/>
<path fill="#ff3f65" d="
  M 34.70 475.87
  Q 120.13 505.81 205.38 535.95
  A 0.27 0.27 0.0 0 1 205.39 536.45
  Q 204.97 536.60 204.55 536.52
  Q 110.28 519.14 16.01 501.72
  C -7.75 497.33 -0.12 466.18 21.17 471.08
  C 24.89 471.94 30.68 474.47 34.70 475.87
  Z"
/>
<circle fill="#ff3f65" cx="927.26" cy="737.69" r="23.77"/>
</svg>
