<?xml version="1.0" encoding="UTF-8" standalone="no"?>
<!DOCTYPE svg PUBLIC "-//W3C//DTD SVG 1.1//EN" "http://www.w3.org/Graphics/SVG/1.1/DTD/svg11.dtd">
<svg xmlns="http://www.w3.org/2000/svg" version="1.1" viewBox="0.00 0.00 457.00 442.00">
<path fill="#f6f6f7" d="
  M 373.38 10.99
  L 415.12 12.31
  A 0.34 0.34 0.0 0 1 415.40 12.82
  L 167.99 430.83
  A 0.34 0.34 0.0 0 1 167.70 431.00
  L 123.74 431.00
  A 0.34 0.34 0.0 0 1 123.45 430.49
  L 373.08 11.15
  A 0.34 0.34 0.0 0 1 373.38 10.99
  Z"
/>
<path fill="#f6f6f7" d="
  M 151.38 204.36
  Q 151.99 204.85 152.39 204.18
  L 263.14 18.14
  A 0.39 0.39 0.0 0 1 263.86 18.41
  Q 253.75 74.33 243.49 130.50
  Q 243.11 132.56 242.05 134.35
  Q 194.90 213.52 146.87 293.79
  Q 146.01 295.23 145.17 293.80
  L 42.89 118.79
  A 0.48 0.48 0.0 0 1 43.61 118.17
  L 151.38 204.36
  Z"
/>
</svg>
