<?xml version="1.0" encoding="UTF-8" standalone="no"?>
<!DOCTYPE svg PUBLIC "-//W3C//DTD SVG 1.1//EN" "http://www.w3.org/Graphics/SVG/1.1/DTD/svg11.dtd">
<svg xmlns="http://www.w3.org/2000/svg" version="1.1" viewBox="0.00 0.00 1364.00 1537.00">
<path fill="#000000" d="
  M 1197.88 17.40
  Q 1201.94 10.57 1206.09 3.76
  C 1207.81 0.95 1209.27 1.86 1211.97 1.79
  Q 1215.76 1.70 1224.06 1.96
  Q 1292.42 4.03 1361.51 6.30
  A 1.12 1.11 -77.2 0 1 1362.49 7.86
  Q 1361.18 10.86 1359.38 13.90
  Q 911.05 771.61 462.63 1529.27
  C 461.65 1530.93 460.75 1533.19 459.08 1534.83
  A 1.48 1.44 -66.6 0 1 458.06 1535.25
  L 296.76 1535.25
  A 1.21 1.21 0.0 0 1 295.62 1533.64
  Q 296.15 1532.16 297.18 1530.43
  Q 747.52 773.91 1197.88 17.40
  Z"
/>
<path fill="#000000" d="
  M 312.06 926.92
  Q 311.71 926.72 311.57 926.34
  Q 311.40 925.86 311.34 925.75
  C 208.52 749.72 105.63 573.73 2.72 397.75
  Q 1.52 395.71 1.79 393.35
  A 0.87 0.87 0.0 0 1 2.46 392.60
  Q 4.37 392.15 6.30 393.69
  Q 44.45 424.03 82.51 454.47
  Q 227.11 570.12 371.72 685.77
  Q 385.54 696.82 398.69 707.46
  A 1.71 1.71 0.0 0 0 401.23 707.01
  Q 603.17 367.78 805.09 28.58
  Q 806.44 26.30 809.04 27.52
  Q 809.49 27.73 809.40 28.22
  C 785.70 160.79 761.37 293.26 737.26 425.75
  C 735.32 436.43 734.31 444.31 728.04 454.85
  Q 555.49 744.93 382.20 1034.57
  C 380.11 1038.06 377.70 1038.80 375.37 1035.02
  Q 372.53 1030.41 365.73 1018.79
  Q 343.58 980.91 321.46 943.02
  Q 314.99 931.92 312.71 927.58
  Q 312.48 927.16 312.06 926.92
  Z"
/>
</svg>
