<?xml version="1.0" encoding="UTF-8" standalone="no"?>
<!DOCTYPE svg PUBLIC "-//W3C//DTD SVG 1.1//EN" "http://www.w3.org/Graphics/SVG/1.1/DTD/svg11.dtd">
<svg xmlns="http://www.w3.org/2000/svg" version="1.1" viewBox="0.00 0.00 1000.00 1000.00">
<g stroke-width="2.00" fill="none" stroke-linecap="butt">
<path stroke="#97a9d0" vector-effect="non-scaling-stroke" d="
  M 359.71 437.66
  Q 405.45 423.90 451.17 410.10
  C 504.81 393.91 557.91 367.73 592.85 322.28
  C 627.03 277.82 642.87 219.56 634.05 163.78
  C 629.12 132.61 613.60 105.05 581.45 95.77
  C 556.72 88.62 531.36 92.11 506.81 99.44
  Q 345.68 147.57 184.37 195.82
  A 0.93 0.93 0.0 0 0 183.71 196.71
  L 183.71 576.82
  A 0.29 0.29 0.0 0 0 184.08 577.10
  L 358.52 524.94
  A 1.04 1.02 -8.4 0 0 359.26 523.96
  L 359.25 438.27
  Q 359.25 437.80 359.71 437.66"
/>
<path stroke="#f4a2b3" vector-effect="non-scaling-stroke" d="
  M 633.23 735.74
  C 636.04 750.17 622.12 758.18 610.56 761.60
  Q 547.95 780.13 488.99 790.26
  Q 453.82 796.30 418.53 800.64
  A 0.46 0.45 -3.6 0 0 418.13 801.09
  L 418.13 907.79
  Q 418.13 908.47 418.81 908.40
  Q 433.42 906.82 448.23 905.09
  C 516.96 897.07 583.62 880.36 649.02 858.05
  Q 667.87 851.62 688.03 842.56
  C 718.79 828.75 745.44 810.32 768.12 785.62
  C 795.31 756.02 813.42 717.49 816.20 677.25
  Q 817.75 654.95 809.82 632.55
  C 801.10 607.90 782.43 590.48 755.25 589.41
  Q 742.30 588.90 730.99 590.23
  Q 701.04 593.74 671.15 602.56
  C 650.62 608.62 630.04 614.48 609.49 620.45
  C 599.70 623.29 591.38 619.49 593.75 608.16
  C 596.11 596.94 609.29 590.94 619.05 587.92
  C 638.80 581.82 658.61 575.56 678.69 570.61
  Q 726.86 558.75 775.75 550.22
  Q 789.02 547.91 802.57 546.27
  Q 803.05 546.22 803.05 545.73
  L 803.05 431.53
  A 0.39 0.39 0.0 0 0 802.63 431.14
  Q 734.64 436.98 668.49 453.43
  C 624.98 464.25 582.06 477.35 541.17 495.92
  C 516.41 507.16 492.28 520.73 470.92 537.67
  C 422.61 575.98 402.19 637.54 411.45 697.98
  C 415.91 727.08 431.76 752.04 462.42 758.80
  C 480.03 762.69 497.68 761.21 515.24 757.98
  C 539.36 753.55 563.41 748.23 586.95 741.33
  Q 601.44 737.08 615.87 732.61
  C 620.16 731.28 631.84 728.62 633.23 735.74"
/>
<path stroke="#97a9d0" vector-effect="non-scaling-stroke" d="
  M 421.43 314.23
  C 451.06 304.97 468.94 281.55 464.47 249.76
  C 461.77 230.54 445.56 227.15 429.50 231.96
  Q 394.48 242.45 359.60 252.92
  A 0.61 0.61 0.0 0 0 359.17 253.50
  L 359.18 332.74
  A 0.41 0.40 81.5 0 0 359.70 333.13
  Q 390.64 323.85 421.43 314.23"
/>
</g>
<path fill="#ffffff" d="
  M 0.00 847.63
  L 0.00 152.25
  Q 0.54 143.58 1.64 135.03
  C 10.20 68.12 60.01 7.06 130.50 1.44
  Q 135.98 1.00 150.50 1.00
  Q 499.00 1.00 847.50 1.00
  Q 861.85 1.00 867.48 1.46
  C 931.91 6.78 979.82 58.31 993.56 119.15
  Q 997.88 138.32 997.89 158.00
  Q 998.02 495.63 997.98 833.25
  Q 997.98 847.54 997.63 853.24
  C 992.94 928.99 936.73 998.98 856.25 998.99
  Q 499.00 999.00 141.75 998.98
  C 64.26 998.98 8.63 933.82 1.03 860.49
  Q 0.71 857.47 0.00 847.63
  Z
  M 359.71 437.66
  Q 405.45 423.90 451.17 410.10
  C 504.81 393.91 557.91 367.73 592.85 322.28
  C 627.03 277.82 642.87 219.56 634.05 163.78
  C 629.12 132.61 613.60 105.05 581.45 95.77
  C 556.72 88.62 531.36 92.11 506.81 99.44
  Q 345.68 147.57 184.37 195.82
  A 0.93 0.93 0.0 0 0 183.71 196.71
  L 183.71 576.82
  A 0.29 0.29 0.0 0 0 184.08 577.10
  L 358.52 524.94
  A 1.04 1.02 -8.4 0 0 359.26 523.96
  L 359.25 438.27
  Q 359.25 437.80 359.71 437.66
  Z
  M 633.23 735.74
  C 636.04 750.17 622.12 758.18 610.56 761.60
  Q 547.95 780.13 488.99 790.26
  Q 453.82 796.30 418.53 800.64
  A 0.46 0.45 -3.6 0 0 418.13 801.09
  L 418.13 907.79
  Q 418.13 908.47 418.81 908.40
  Q 433.42 906.82 448.23 905.09
  C 516.96 897.07 583.62 880.36 649.02 858.05
  Q 667.87 851.62 688.03 842.56
  C 718.79 828.75 745.44 810.32 768.12 785.62
  C 795.31 756.02 813.42 717.49 816.20 677.25
  Q 817.75 654.95 809.82 632.55
  C 801.10 607.90 782.43 590.48 755.25 589.41
  Q 742.30 588.90 730.99 590.23
  Q 701.04 593.74 671.15 602.56
  C 650.62 608.62 630.04 614.48 609.49 620.45
  C 599.70 623.29 591.38 619.49 593.75 608.16
  C 596.11 596.94 609.29 590.94 619.05 587.92
  C 638.80 581.82 658.61 575.56 678.69 570.61
  Q 726.86 558.75 775.75 550.22
  Q 789.02 547.91 802.57 546.27
  Q 803.05 546.22 803.05 545.73
  L 803.05 431.53
  A 0.39 0.39 0.0 0 0 802.63 431.14
  Q 734.64 436.98 668.49 453.43
  C 624.98 464.25 582.06 477.35 541.17 495.92
  C 516.41 507.16 492.28 520.73 470.92 537.67
  C 422.61 575.98 402.19 637.54 411.45 697.98
  C 415.91 727.08 431.76 752.04 462.42 758.80
  C 480.03 762.69 497.68 761.21 515.24 757.98
  C 539.36 753.55 563.41 748.23 586.95 741.33
  Q 601.44 737.08 615.87 732.61
  C 620.16 731.28 631.84 728.62 633.23 735.74
  Z"
/>
<path fill="#2e53a1" d="
  M 359.25 438.27
  L 359.26 523.96
  A 1.04 1.02 -8.4 0 1 358.52 524.94
  L 184.08 577.10
  A 0.29 0.29 0.0 0 1 183.71 576.82
  L 183.71 196.71
  A 0.93 0.93 0.0 0 1 184.37 195.82
  Q 345.68 147.57 506.81 99.44
  C 531.36 92.11 556.72 88.62 581.45 95.77
  C 613.60 105.05 629.12 132.61 634.05 163.78
  C 642.87 219.56 627.03 277.82 592.85 322.28
  C 557.91 367.73 504.81 393.91 451.17 410.10
  Q 405.45 423.90 359.71 437.66
  Q 359.25 437.80 359.25 438.27
  Z
  M 421.43 314.23
  C 451.06 304.97 468.94 281.55 464.47 249.76
  C 461.77 230.54 445.56 227.15 429.50 231.96
  Q 394.48 242.45 359.60 252.92
  A 0.61 0.61 0.0 0 0 359.17 253.50
  L 359.18 332.74
  A 0.41 0.40 81.5 0 0 359.70 333.13
  Q 390.64 323.85 421.43 314.23
  Z"
/>
<path fill="#ffffff" d="
  M 464.47 249.76
  C 468.94 281.55 451.06 304.97 421.43 314.23
  Q 390.64 323.85 359.70 333.13
  A 0.41 0.40 81.5 0 1 359.18 332.74
  L 359.17 253.50
  A 0.61 0.61 0.0 0 1 359.60 252.92
  Q 394.48 242.45 429.50 231.96
  C 445.56 227.15 461.77 230.54 464.47 249.76
  Z"
/>
<path fill="#e94467" d="
  M 610.56 761.60
  C 622.12 758.18 636.04 750.17 633.23 735.74
  C 631.84 728.62 620.16 731.28 615.87 732.61
  Q 601.44 737.08 586.95 741.33
  C 563.41 748.23 539.36 753.55 515.24 757.98
  C 497.68 761.21 480.03 762.69 462.42 758.80
  C 431.76 752.04 415.91 727.08 411.45 697.98
  C 402.19 637.54 422.61 575.98 470.92 537.67
  C 492.28 520.73 516.41 507.16 541.17 495.92
  C 582.06 477.35 624.98 464.25 668.49 453.43
  Q 734.64 436.98 802.63 431.14
  A 0.39 0.39 0.0 0 1 803.05 431.53
  L 803.05 545.73
  Q 803.05 546.22 802.57 546.27
  Q 789.02 547.91 775.75 550.22
  Q 726.86 558.75 678.69 570.61
  C 658.61 575.56 638.80 581.82 619.05 587.92
  C 609.29 590.94 596.11 596.94 593.75 608.16
  C 591.38 619.49 599.70 623.29 609.49 620.45
  C 630.04 614.48 650.62 608.62 671.15 602.56
  Q 701.04 593.74 730.99 590.23
  Q 742.30 588.90 755.25 589.41
  C 782.43 590.48 801.10 607.90 809.82 632.55
  Q 817.75 654.95 816.20 677.25
  C 813.42 717.49 795.31 756.02 768.12 785.62
  C 745.44 810.32 718.79 828.75 688.03 842.56
  Q 667.87 851.62 649.02 858.05
  C 583.62 880.36 516.96 897.07 448.23 905.09
  Q 433.42 906.82 418.81 908.40
  Q 418.13 908.47 418.13 907.79
  L 418.13 801.09
  A 0.46 0.45 -3.6 0 1 418.53 800.64
  Q 453.82 796.30 488.99 790.26
  Q 547.95 780.13 610.56 761.60
  Z"
/>
</svg>
